<svg version="1.2" xmlns="http://www.w3.org/2000/svg" viewBox="0 0 2000 720" width="2000" height="720">
	<title>xsdark-svg</title>
	<style>
		.s0 { fill: #efefef } 
	</style>
	<path id="XScripts" class="s0" aria-label="XScripts"  d="m94.3 660.6c0.2 0.2 0.6 0.4 0.8 0.4 0.2 0 2.4-1.7 4.9-3.7 9.7-8.1 33.4-26.1 33.7-25.7 0.1 0.1 0.7 1.2 1.3 2.5 1.8 4.2 4.2 8.7 8 14.9 5.1 8.3 8.2 11.5 9.5 10.1 0.4-0.5 0.3-0.8-1-2.1-2-2-3.9-4.8-6.7-9.6-3-5.1-5.7-10.3-7.4-14.4l-1.4-3.3 1.4-1.1c3-2.3 14.7-10.4 24.4-16.8 11-7.2 17.6-11.2 22.9-13.9 2.6-1.3 3.3-1.8 3.2-2.2-0.1-0.3-0.4-0.6-0.6-0.7-2.2-0.4-25.3 13.9-45.6 28.2-3.8 2.7-6.4 4.3-6.5 4.1-2.7-6.2-6.7-20-8.8-30.1-0.5-2.3-1.2-3-2.1-2.3-0.5 0.4-0.5 0.8 0.1 4 0.9 4.5 2.9 12.8 4 16.4 0.7 2.5 4.3 12.6 4.8 13.6 0.1 0.3-2.1 2.1-7 5.7-11.9 8.9-28.9 22.4-31.1 24.7-0.9 0.8-1 1.1-0.6 1.5zm75.9 2.2c3.3 0.9 12.2-0.8 18.9-3.6 12-5 15.5-11.3 8.8-15.7-1.1-0.6-5.2-2.5-9.3-4.1-9.2-3.7-11.6-5-14.4-7.4-7.5-6.4-5.7-12.7 6.1-22.1 9.8-7.9 21.7-13.5 30.7-14.6 3.6-0.5 5.4-0.2 6.6 1 1.4 1.4 1 3.6 0.2 6.1-0.5 1.8-1.4 3.7-3.1 6.6-2.9 4.8-8.7 11.7-12.7 15.4-1.5 1.3-1.8 2.2-0.8 2.5 0.7 0.2 4.2-2.7 8-7.1 5.4-5.9 9.1-11.6 10.8-16.2 0.4-1.2 0.7-2.4 0.8-3.4 0.6-5.1-2.9-7.5-9.5-6.7-9.5 1-20.3 5.8-30.7 13.5-5.6 4.1-9.3 7.8-11.6 11.6-1.4 2.4-1.4 2.5-1.4 5.4 0 2.9 0 3 1.2 5.1 2.6 4.2 7.1 7.2 15.6 10.5 12.8 5 14.6 6 14.6 8.6 0 4.5-9.4 9.9-21.7 12.6-1.2 0.3-3.2 0.5-4.5 0.5-2.1 0-2.5-0.1-3.3-0.7-2.3-1.7-1.4-4.2 2.7-7.6 4.5-3.6 9.4-6 10.2-5 0.3 0.5 1.5 0.4 1.5-0.1 0-1-1.3-1.8-2.8-1.8-1.4 0-4.8 1.7-8.1 4-3.6 2.4-5.1 3.8-6.2 5.6-1.6 3-0.1 6.2 3.5 7zm57.8-30.3c-8.4 5.8-13.6 7.6-17.2 6.8-2.3-0.5-2.6-2.1-1-4.9 0.9-1.7 3.5-3.9 4.3-3.7 0.2 0.1 0.5 0.5 0.6 0.9 0.3 1.2 0.6 1.6 1.3 1.6 1.6 0 0.9-3.3-0.9-3.9-2.9-1.1-7.1 2.3-8.3 6.6-0.7 2.4 0.9 4.6 3.4 5.1 0.4 0 1 0.1 1.2 0.2 1.4 0.4 5.4-0.4 8.3-1.7 3.6-1.6 8.1-4.2 11.1-6.4 1.2-1 2-1.7 2-2 0-1.2-1.3-0.7-4.7 1.6zm19.9-1.8c-1.4 0.5-2.5 0.7-3.9 0.7-2.3 0-2.8-0.6-3.5-1.8-1.2-1.9-1.7-1.8-5.2 1-2.9 2.3-3 2.3-2.2 1.1 0.7-1.1 0.7-1.2 0.2-1.6-0.9-0.8-1.6-0.2-3.7 3.3-2.5 4-3.5 6.6-2.9 7.2 0.2 0.2 0.5 0.3 0.8 0.3 0.3 0 1.8-1.4 3.5-3.2 3.2-3.6 6.9-7.1 7.4-7.1 0.2 0 0.6 0.4 1.1 0.8 1.2 1.2 2.6 2 5.4 1.8 1.7-0.1 3.7-0.6 5-1.2 0.7-0.4 1.2-0.7 1.2-1 0-0.9-0.9-0.9-3.1-0.1zm11.4-6.1c0.9-1.1 0.8-1.9-0.3-2.1-0.7-0.1-2.5 2.3-2.2 2.9 0.4 0.8 1.5 0.4 2.5-0.8zm8.1 7.6c-6.2 4-11.7 6.4-13.8 6.4-2.3 0-2.1-1.6 0.6-5.9 1.4-2.3 1.6-2.8 1.2-3.2-0.3-0.3-0.5-0.5-0.8-0.5-0.7 0-1.5 0.9-2.8 2.9-1.3 1.8-2.3 4.4-2.3 5.7 0 0.7 0.3 1.2 1 1.8 0.9 0.7 1.4 0.9 2.7 0.9 2 0 3.6-0.5 7.6-2.5 2.9-1.5 6.5-3.6 9.1-5.4 1.2-0.9 1.9-1.4 1.9-1.6-0.2-1-1.4-0.6-4.5 1.4zm28.7-2c-0.5-0.2-1.1 0.1-2.8 1.3-4.8 3.5-7.7 4.5-12 5.5l-2.4 0.6 1.4-1.7c3.2-3.8 3.2-7 0-7-2.7 0-7.1 3.6-11.5 9.3-1.1 1.4-2.1 2.5-2.1 2.5-0.1 0 0.3-0.8 1-1.9 3.9-6.4 5.8-9.7 5.6-10-0.1-0.2-0.4-0.3-0.8-0.3-0.1 0-0.2 0-0.3 0-0.7 0.1-1.5 1.2-4.8 6.5-3.7 6-10.9 18.6-12 20.9-0.3 0.6-0.4 1.2-0.3 1.5 0.3 0.6 1.1 0.6 1.8 0 0.3-0.2 2.8-3.5 5.5-7.4 6-8.4 6.2-8.6 6.7-8.1 0.9 0.8 3.3 0.2 5.9-1.4 0.6-0.4 1.7-0.8 2.6-0.9 2.4-0.3 6.6-1.3 9-2.3 2.9-1.2 6.2-3 8.5-4.8 0.9-0.7 1.4-1.2 1.4-1.4 0-0.2-0.3-0.5-0.6-0.7zm-22.1 8.1c-0.4 0-1.4 0.2-2.2 0.4l-1.4 0.4 0.4-0.6c1.5-2.4 6.3-6.6 8.2-7.4 0.9-0.4 1.2-0.5 1.3 0.1 0.4 1.9-4.6 7.2-6.3 7.2zm42.5-22.3c-5.6-0.1-10.2-0.2-10.2-0.3 0-0.1 0.6-1.3 1.5-2.8 1.6-2.7 1.7-3.7 0.4-3.5-0.5 0.1-1.3 1-2.8 3.3l-2.1 3.3h-1.9c-3.1 0-12.2 0.6-15.2 0.9-2.9 0.4-3.5 0.8-2.9 1.6 0.4 0.5 0.7 0.5 3 0.2 3.2-0.4 15.4-1 15.6-0.8 0.1 0.1-0.7 1.6-1.8 3.5-1 1.8-3 5.2-4.4 7.6-1.3 2.4-4.2 7.4-6.3 11.2-5.8 10-9.5 18-8.8 19 0.3 0.7 1.8 0.8 2.3 0.2 0.2-0.2 0.3-0.9 0.3-1.6 0-1.8 2.4-7.1 17.3-32.6 1.1-1.8 2.5-4.2 3.2-5.3 1-1.8 1.2-2 2.4-2.2 2.3-0.3 18.8-0.2 19.2 0.1 0.6 0.5 2.4 0.2 2.4-0.5 0.2-1.2-0.3-1.3-11.3-1.4zm4.3 14.9c-1.4 0.5-4.4 1.5-7 2.5-2.7 1.1-5.1 2.1-5.4 2.3-0.7 0.4-0.9 0.1-1.4-1.7-0.4-1.8-0.2-2.9 0.9-3.5 0.9-0.5 0.9-1.1-0.1-1.5-0.2-0.1-0.4-0.1-0.6-0.1-0.8 0-1.8 0.8-2.4 2.1-0.4 1-0.4 1.4 0.1 3.6l0.6 2.5-0.8 0.4c-1.5 0.8-4.1 2.7-4.8 3.4-0.8 1-0.8 2.6 0 3.1 1 0.6 2.9 0.5 4.6-0.2 2-0.8 3.4-2.6 3.7-4.7l0.2-1.5 5.4-2.2c3.1-1.2 6.4-2.3 7.8-2.9 2-0.8 2.6-1.2 2.6-1.6 0-1-0.8-1-3.4 0.1zm-17.2 11c-0.6 0.4-1.5 0.7-1.9 0.7-0.8 0-0.9-0.1-0.6-0.6 0.4-0.6 3.7-3.1 4.1-3.1 0.9 0-0.3 1.9-1.7 2.9z"/>
	<path id="Satya Nadella" class="s0" aria-label="Satya Nadella"  d="m1554.2 662.8c3.4 0.9 12.2-0.8 18.9-3.6 12-5 15.6-11.3 8.8-15.7-1-0.6-5.1-2.4-9.3-4.1-9.2-3.7-11.6-5-14.3-7.4-7.5-6.4-5.8-12.7 6-22.1 9.9-7.9 21.8-13.5 30.8-14.6 3.5-0.5 5.4-0.2 6.5 1 1.4 1.4 1.1 3.6 0.3 6.1-0.6 1.8-1.4 3.7-3.2 6.6-2.8 4.8-8.6 11.7-12.6 15.4-1.6 1.3-1.8 2.2-0.9 2.5 0.8 0.2 4.2-2.7 8.1-7 5.3-6 9.1-11.6 10.7-16.2 0.5-1.3 0.8-2.4 0.9-3.5 0.5-5.1-2.9-7.5-9.5-6.7-9.5 1-20.4 5.8-30.7 13.5-5.7 4.1-9.3 7.8-11.6 11.6-1.5 2.4-1.5 2.5-1.5 5.4 0 2.9 0 3.1 1.3 5.1 2.6 4.2 7.1 7.3 15.5 10.5 12.9 5 14.7 6.1 14.7 8.6-0.1 4.6-9.4 9.9-21.8 12.6-1.1 0.3-3.1 0.5-4.5 0.5-2.1 0-2.5-0.1-3.2-0.7-2.3-1.7-1.5-4.2 2.6-7.6 4.6-3.6 9.4-6 10.2-4.9 0.4 0.4 1.5 0.3 1.5-0.2 0-1-1.2-1.8-2.7-1.8-1.5 0-4.8 1.7-8.2 4-3.5 2.4-5.1 3.8-6.1 5.6-1.7 3-0.1 6.2 3.4 7zm62.9-31.5c-0.7 0.5-1.7 1.2-2.9 2.2-4.4 3.5-7.1 5-9.3 5.2-1.2 0.1-1.5 0-1.9-0.5-0.5-0.9-0.1-2.6 1.1-4.9 0.9-1.5 1-1.9 0.6-2.3-0.6-0.6-1-0.5-2 0.4l-1 0.7-0.5-0.9c-0.6-1.2-1.6-1.7-3-1.7-1 0-2.3 0.3-3.6 1.1-4.7 2.7-8 8.5-5.6 10 1.8 1 4.9-0.1 9.3-3.5l2.3-1.7v1.6c0 1.5 0.1 1.8 1.2 2.6 1.9 1.6 4.3 1.3 8.5-1.1 2.3-1.4 6-4.2 7.9-6.1 0.7-0.6 1.1-1.1 1.1-1.3 0-1.1-0.5-1.2-2.4 0.1zm-19.6 4c-1.3 1-3.2 2.2-4.2 2.9-2.5 1.4-3.1 1.5-2.8 0.3 0.7-2.8 5.9-7.3 8-7.2 0.2 0 0.4 0.1 0.5 0.2 0.2 0.1 0.5 0.6 0.7 1.2 0.3 1 0.2 1.1-2 2.7zm42.4-19.3c-5.7-0.1-10.3-0.2-10.3-0.3 0-0.1 0.7-1.3 1.5-2.7 1.7-2.7 1.8-3.8 0.4-3.6-0.5 0.1-1.2 1.1-2.8 3.4l-2.1 3.2h-1.9c-3.1 0-12.2 0.6-15.1 1-2.9 0.4-3.6 0.8-2.9 1.5 0.4 0.5 0.7 0.5 3 0.2 3.1-0.4 15.3-0.9 15.5-0.8 0.1 0.1-0.7 1.7-1.7 3.5-1.1 1.8-3.1 5.3-4.4 7.7-1.4 2.4-4.3 7.4-6.4 11.1-5.7 10.1-9.5 18-8.8 19.1 0.4 0.6 1.8 0.7 2.3 0.2 0.2-0.2 0.3-1 0.3-1.7 0-1.8 2.5-7.1 17.4-32.6 1-1.8 2.4-4.2 3.1-5.2 1.1-1.9 1.3-2.1 2.4-2.2 2.3-0.3 18.8-0.2 19.2 0 0.7 0.5 2.4 0.2 2.5-0.4 0.2-1.3-0.4-1.4-11.3-1.5zm17.3 14.7c-0.3-1.1-1.6-0.6-7.4 2.7-3.3 1.8-5.4 2.7-5.5 2.6-0.1-0.1 0-1.1 0.2-2.2 0.5-2.4 0.3-3.3-0.9-4-0.8-0.4-0.9-0.4-2.4 0.1-0.8 0.4-2.3 1.5-3.2 2.4-3.4 3.2-6.9 6.1-7.3 6.1-0.4 0-0.5-0.3-0.3-1.4 0.3-1.8 0.7-2.9 2.1-5.1 1-1.8 1.1-2 0.7-2.3-0.2-0.2-0.4-0.3-0.7-0.3-0.6 0-1.2 0.5-1.9 1.7-2.1 3.1-3 7.1-1.9 8.4 0.5 0.6 0.8 0.7 2.2 0.6 1.8-0.2 2.5-0.7 7.7-5.5 1.9-1.7 3.7-3.1 3.9-3.1 0.2 0 0.3 0.4 0.3 0.7 0 0.8-1.2 5.6-1.4 5.8-0.1 0.1-1.6 1.1-3.4 2.2-7.8 4.9-14.3 10.1-15.7 12.4-1.3 2.3-0.6 4.3 1.6 4.8 1.1 0.2 1.3 0.2 2.9-0.2 3.2-0.8 7.8-4.1 10.8-7.7 1.7-2.1 4.5-6.8 5.3-9.1 0.7-1.8 0.2-1.3 8.9-6 4.1-2.3 5.7-3.3 5.6-3.6zm-21.9 18.1c-1.7 2-4.7 4.5-7.1 5.9-2.2 1.1-4.3 1.5-4.6 0.7-0.4-0.8 0.4-2.4 2.2-4.2 2.5-2.5 13-9.9 13.9-9.9 0 0 0 0 0 0 0.2 0.3-3.1 5.5-4.6 7.4zm42.5-17.5c-0.8 0.5-1.8 1.2-3 2.2-4.4 3.5-7.1 5-9.3 5.2-1.2 0.1-1.5 0-1.8-0.5-0.6-0.9-0.2-2.6 1-4.9 0.9-1.5 1-1.9 0.6-2.3-0.6-0.6-1-0.5-2 0.4l-1 0.7-0.5-0.9c-0.5-1.2-1.6-1.7-2.9-1.7-1.1 0-2.3 0.3-3.7 1.1-4.7 2.7-7.9 8.5-5.5 10 1.7 1 4.8-0.1 9.3-3.5l2.3-1.7v1.6c0 1.5 0.1 1.8 1.1 2.6 1.9 1.6 4.3 1.3 8.5-1.1 2.3-1.4 6-4.1 7.9-6.1 0.7-0.6 1.1-1.1 1.1-1.3 0-1.1-0.5-1.2-2.3 0.1zm-19.7 4c-1.2 1-3.2 2.2-4.2 2.9-2.5 1.4-3.1 1.5-2.8 0.3 0.7-2.8 5.9-7.3 8.1-7.2 0.1 0 0.3 0.1 0.4 0.2 0.2 0.1 0.5 0.7 0.7 1.2 0.3 1 0.2 1.1-2 2.7zm60.5 22.6c0.7 0 1-0.2 1.4-1.5 2-4.8 16.7-33.7 23.6-46.1 5.2-9.4 5.8-10.5 5.9-10.4 0.1 0.1-0.2 1.5-0.6 3.1-0.8 3.9-2.6 13.3-3.2 17.7-1.7 11.1-1.7 21.8 0 28.8 1.5 6.7 3.9 10 8 11.2 8.4 2.4 19.5-7.1 28-24 6.2-12.4 12.3-31.8 12.6-40.3l0.1-2.6-1-0.1c-0.9-0.1-0.9 0-0.9 0.9 0 3-3.4 16.9-6.2 25.2-3.8 11.5-9.8 23.1-15.3 30-2.8 3.4-8 7.6-10.8 8.6-4.5 1.7-7.5 0.9-9.8-2.8-2.3-3.9-3.3-9.5-3.3-19.3 0-9.4 0.9-16.7 3.6-30.4 1.5-7.1 1.9-10.1 1.4-10.9-0.6-0.9-1.7-1-2.4-0.2-0.5 0.6-4.9 8.3-7.3 12.7-4.6 8.3-7.3 13.3-10.3 19.1-10.7 21-15.1 30.3-14.7 31.2 0.1 0.1 0.5 0.3 1 0.3zm98.2-26.6c-0.7 0.5-1.7 1.2-3 2.2-4.4 3.5-7 5-9.3 5.2-1.1 0.1-1.4 0-1.8-0.5-0.6-0.9-0.2-2.6 1.1-4.9 0.8-1.5 0.9-1.9 0.6-2.3-0.6-0.6-1-0.5-2.1 0.4l-0.9 0.7-0.5-0.9c-0.6-1.2-1.6-1.7-3-1.7-1 0-2.3 0.3-3.6 1.1-4.7 2.7-8 8.5-5.6 10 1.7 1 4.9-0.1 9.3-3.5l2.3-1.7v1.6c0 1.5 0.1 1.8 1.2 2.6 1.9 1.6 4.3 1.3 8.5-1.1 2.3-1.4 6-4.2 7.9-6.1 0.6-0.6 1-1.1 1-1.3 0-1.1-0.4-1.2-2.3 0.1zm-19.6 4c-1.3 1-3.2 2.2-4.3 2.9-2.4 1.4-3 1.5-2.7 0.3 0.6-2.8 5.9-7.3 8-7.2 0.2 0 0.4 0.1 0.5 0.2 0.2 0.1 0.5 0.6 0.7 1.2 0.3 1 0.2 1.1-2 2.7zm48.5-5.1c-0.6-0.2-1.8 0.6-7.8 5-5.6 4.2-9.2 5.6-9.8 3.7-0.8-2.7 5.9-18.4 11.4-26.5 1.3-2 1.4-2.4 0.6-2.9-0.2-0.1-0.4-0.2-0.6-0.2-0.6 0-1.5 1.1-3.5 4.1-5.4 8.2-8.1 12.1-10 14.7l-2 2.8-1.1-1c-1.5-1.1-2.7-1.2-4.4-0.3-2.4 1.4-5.1 5.7-5.1 8.1 0 2.2 2.5 2.8 5.2 1.2 1.7-0.9 4.8-4.1 7.7-7.7 1.9-2.4 1.9-2.4 0.5 1.4-0.7 1.8-1 3.2-1 5 0 2.2 0.1 2.5 0.9 3.2 0.5 0.4 1.1 0.7 1.5 0.8 3 0.5 6.2-1.1 13.7-6.9 3.9-3 4.7-4 3.5-4.4zm-25.4 4.7c-2.5 2.5-4.4 3.8-4.7 3.1-0.5-1.1 2.8-6.3 4.4-7 0.3-0.1 0.6-0.2 0.8-0.2 0.4 0 0.8 0.3 1.3 1 0.5 0.8 0.5 0.9-1.7 3.2zm40.6-2.7c-6.5 5.1-10.8 7.3-14.1 7.3-2.4 0-3.7-0.8-3.8-2.3-0.1-0.6 0-1.3 0.2-1.7 0.3-0.6 0.5-0.3 2.4-0.4 1.2-0.1 2.3-0.3 3.4-1.2 1.9-1.7 2-3.4 0.3-4.2-0.3-0.2-0.7-0.3-1.1-0.3-3 0-7.1 3.7-7.5 7-0.3 2.4 1.4 4.2 4.7 4.7 4.2 0.7 9.1-1.4 16.2-7 2.2-1.7 3.2-2.8 3.2-3.1 0.1-0.6-0.3-1.4-3.8 1.3zm-15.3 0.1c1-0.8 2.1-1.3 2.6-1.3 0.1 0 0.2 0 0.2 0 0.4 0.3-0.4 1.3-1.4 1.8-1.2 0.6-1.2 0.6-1.8 0.3-0.3-0.2-0.2-0.5 0.5-1.1zm52.9-23.2c-5.1 4.2-12.2 13.9-15.6 21.5-1.2 2.8-1.3 2.9-3.6 4.3-6.8 4.6-12.7 6.6-14.6 5-1-0.8-1.3-2.4-0.8-4.5 0.6-2.6 1.9-5.7 2.5-5.9 6-1.4 14.9-9.6 16.5-15.4 0.5-1.6 0.1-3.3-0.9-3.5-2-0.7-3.9 0.1-7.2 2.9-4.4 3.9-9.1 10.6-11.5 16.3-2.7 6.3-2.6 9.7 0.3 11.5 0.8 0.5 1.6 0.6 3.6 0.6 2.3 0 2.8-0.1 5.1-1 1.5-0.6 3.8-1.8 5.2-2.6 1.5-0.9 2.7-1.7 2.9-1.8 0.2 0 0.3 1.1 0.2 3.2-0.2 3.8 0.3 5 2.1 6 2.1 1 5.4 0.2 10.2-2.7 2.4-1.5 4.9-3.4 10.4-8.2 1.8-1.5 2.8-2.6 3.5-3.1 1.4-1.3 0.5-2.1-1-1-1.2 1-3.8 3-6.7 5.3-6.8 5.5-8.5 6.6-11.9 7.9-2.7 1.2-3.8 0.7-4.3-1.7-0.3-1.2 0.3-5.1 1.1-7.2 0.3-1.1 0.9-1.8 3.5-3.9 5.9-4.7 11.3-10.9 14.5-16.2 2.9-4.9 3.1-7.5 0.8-8-0.1 0-0.3 0-0.5 0-1 0-2 0.6-3.7 1.9zm3.8-0.3c0.3 0.3-1 3.2-2.6 5.9-1.7 2.6-5.4 7.2-8.4 10.2-1.2 1.2-2.9 2.7-3.8 3.4-1.8 1.5-1.8 1.4 0.6-2.9 3-5.3 8.2-12 11.9-15.1 1-0.9 2-1.6 2.2-1.6 0 0 0 0 0 0zm-22.7 7.1c-2 3.5-5.7 7.3-9.6 9.7-2.3 1.5-2.8 1.8-2.8 1.4 0-0.4 3.6-6.2 4.9-7.8 3-3.9 7.2-7.6 8.5-7.6 0.6 0 0 2.4-1 4.1zm46.5 15.4c-0.7 0.5-1.7 1.2-2.9 2.2-4.4 3.6-7.1 5-9.3 5.2-1.2 0.1-1.5 0-1.8-0.5-0.6-0.9-0.2-2.6 1-4.9 0.9-1.5 1-1.9 0.6-2.3-0.6-0.6-1-0.5-2 0.4l-1 0.8-0.5-1c-0.5-1.1-1.6-1.7-2.9-1.7-1.1 0-2.3 0.4-3.7 1.1-4.7 2.7-7.9 8.6-5.6 10 1.8 1.1 4.9-0.1 9.4-3.5l2.3-1.7v1.7c0 1.4 0 1.7 1.1 2.5 1.9 1.6 4.3 1.3 8.5-1.1 2.3-1.4 6-4.1 7.9-6.1 0.7-0.6 1.1-1.1 1.1-1.3 0-1-0.5-1.1-2.3 0.1zm-19.7 4c-1.2 1-3.2 2.2-4.2 2.9-2.5 1.4-3.1 1.5-2.8 0.3 0.7-2.8 5.9-7.3 8.1-7.2 0.1 0 0.3 0.1 0.4 0.2 0.2 0.1 0.5 0.7 0.7 1.2 0.3 1 0.2 1.1-2 2.7z"/>
	<path id="Automation is not a replacement " class="s0" aria-label="Automation is not a replacement for human intelligence, but rather a tool to help us achieve more. "  d="m356.5 259.1c-3.2 0-5.8-0.2-5.8-0.3 0-0.2 2.6-9.6 5.8-20.8 6.3-22.8 7.5-28.8 7.5-34.8 0-6.1-1.8-9.1-5.7-9.1-2.9 0-7 1.8-12.4 5.3-14.4 9.8-37.9 33.7-60.7 61.8l-2.6 3.2-8.9 1.1c-16.4 2.1-25.7 4.4-25.7 6.4 0 1.7 1.5 1.7 8.2 0.1 6.4-1.6 22.7-4 23.3-3.5 0.2 0.2-2.1 3.7-5 7.8-9.8 13.8-17.8 26.9-17.6 28.7 0.2 1.2 0.6 1.6 1.9 1.6 1.2 0 1.8-0.6 2.7-2.9 2.3-4.9 23.9-36.4 25-36.4 0.4 0 6.3-0.6 13.3-1.3 11.5-1 25-2.1 40-3l5.6-0.4-0.4 1.3c-1.7 5.3-4.1 14.9-5.9 23.5-4.3 18.8-5.2 26.1-3.7 28.2 0.7 1 3.7 1.2 4.2 0.2 0.2-0.4 0.2-1.8 0-3.2-0.5-4.3 3.2-22.7 8.7-42.5l2.2-7.8h7.6c7.4 0 7.8 0 8-1.1 0.4-1.6-2.1-2.1-8.9-2.1zm-8.7-4.4l-1.3 4.6-2.6 0.2c-10.9 0.5-36.1 2.4-44 3.3-10.8 1.1-10.6 1.1-10.6 0.7 0-0.3 11.1-13.8 15.9-19.3 14.5-16.4 26.1-27.9 38.3-37.5 8-6.2 13-9.2 15.2-9 0.2 0 0.4 0 0.6 0 2.2 0.7 1.6 8.5-1.3 20-0.9 3.5-3.3 12.2-5.4 19.3-2 7.1-4.2 15-5 17.5zm73.5 6.4c-0.6-1.1-2.1-0.7-3.3 0.2-1.2 0.7-2.6 1.5-4.1 2.6-16.3 10.6-26.3 14.4-26.3 9.7 0-0.7 0.9-3.5 2-6.1 1.2-2.7 1.9-5.4 1.7-5.7-0.9-2-2.6-1.3-9.2 3.9-7.4 5.6-12.8 9.4-13.7 9.4-1 0-0.8-2.9 0.3-5.3 0.6-1.3 2.1-3.9 3.4-6.1 2.2-3.5 2.4-3.9 1.4-4.6-1.8-1.4-3.1-0.5-6.3 4.5-3.7 6-4.9 10.6-3.3 12.5 2.8 3.2 7.1 2.2 15.2-4l5-3.9-0.4 3.5c-0.4 3.2 0.9 6.7 6.3 6.9 4.6 0.2 13.9-4.1 23.9-10.6 7.2-4.6 7.9-5.5 7.2-6.7zm39.4-27.1c-10.9-0.2-19.8-0.4-19.8-0.6 0-0.1 1.3-2.4 3-5.1 3.1-5 3.3-6.9 0.7-6.5-0.9 0.1-2.4 1.9-5.3 6.2l-4.1 6h-3.7c-5.9 0-23.5 1-29.3 1.7-5.5 0.7-6.8 1.5-5.5 2.9 0.7 0.9 1.3 0.9 5.7 0.3 6.1-0.7 29.6-1.7 30-1.4 0.2 0.2-1.3 3-3.3 6.4-2.1 3.3-5.9 9.7-8.5 14.1-2.6 4.5-8.2 13.7-12.3 20.6-11.1 18.6-18.3 33.3-17 35.2 0.8 1.3 3.5 1.4 4.5 0.4 0.3-0.4 0.5-1.8 0.5-3 0-3.4 4.8-13.1 33.5-60.2 2-3.4 4.8-7.8 6.1-9.8 2.1-3.3 2.4-3.7 4.6-4 4.5-0.6 36.3-0.4 37.1 0.1 1.3 0.9 4.6 0.4 4.8-0.9 0.3-2.3-0.8-2.4-21.9-2.6zm22.1 26.5c-1-1-2.8-0.1-7.6 2.7-8.2 4.8-15.9 6.9-22.1 6.9h-2.9l0.9-2.5c1.7-4 1.3-6.2-1.7-8.8-0.9-0.7-2.4-1.1-3.8-1.1-1.5 0-3 0.4-4.1 1.1-0.9 0.5-2 1-2.6 1.2-0.6 0.2-2.2 1.8-3.7 3.6-5.9 6.9-7 13.1-2.8 16.1 2.4 1.6 4.5 1.7 7.8 0.7 2.4-0.7 7.4-4.6 7.9-6 0.4-0.8 1.2-0.9 4.3-0.9 7.6 0 15-1.8 24.6-7.1 5.2-2.8 6.7-4.6 5.9-5.5zm-39.6 14c-0.7 0.9-2.4 2.1-3.7 2.6-2.9 1.5-4.2 1.5-5.1-0.1-1-1.6-0.4-3.9 1.6-7.3l1.5-2.5 1.5 2c0.7 1 2.6 2.1 3.9 3l1.6 0.9zm4.3-7.8c-0.4 1.4-0.9 2.8-1.3 3-0.4 0.2-1.5-0.2-2.6-0.9-1.5-1.1-2-1.8-2-3 0-2 2-4.3 3.9-4.4 0.1 0 0.3 0 0.5 0 1.9 0.1 2.4 1.9 1.7 5.3zm108.4-5.7c-0.7-1.6-2.6-0.7-8.5 3.6-10.5 7.6-15.5 10.9-20.7 12.4-2.8 0.7-3.2 0.7-3.9-0.2-0.9-1.1-0.9-0.7 1.5-8.5 1.6-5.7 1.6-6 0.5-7.3-0.9-1.2-1.5-1.4-3.7-1.2-2.9 0.3-5.9 1.7-13.1 6.7l-5.2 3.5 0.6-3c1.1-6.2 0-8.3-4.1-8.3-3.5 0-7.6 2.5-15.7 9.2-2.3 1.8-4.1 3.2-4.3 3.2-0.2 0 0.7-2.1 2-4.6 3.4-6.9 3.9-8.5 3-9.2-0.4-0.4-1.1-0.5-1.7-0.4-2.2 0.8-9 15.3-9 19.5 0 2.1 0.2 2.3 1.6 2.5 1.5 0.2 2.4-0.4 5.6-3.4 8.1-7.8 15.7-13.4 18.1-13.4 0.8 0 0.8 0.5 0.4 3.7-0.8 5.1-0.6 6.7 0.7 7.4 1.9 1.1 4.1 0.2 9.8-3.7 6.3-4.2 11-6.9 11.5-6.4 0.2 0.2 0 1.3-0.4 2.5-0.3 1.3-1.3 4.1-1.8 6.2-1.3 4.4-0.8 6.6 1.8 7.6 5.6 2.2 13.2-0.9 27.1-10.8 8.5-6 8.8-6.3 8.3-7.6zm40.7 1.1c-1.5 0.9-3.3 2.3-5.7 4.1-8.6 6.5-13.7 9.2-18 9.5-2.2 0.2-2.8 0-3.5-0.9-1.1-1.6-0.4-4.8 2-9 1.7-2.8 1.9-3.5 1.1-4.3-1.1-1-1.8-0.8-3.8 0.8l-1.9 1.4-0.9-1.8c-1.1-2.1-3.2-3.2-5.8-3.2-2 0-4.4 0.7-7 2.1-9.1 5-15.4 15.8-10.7 18.5 3.3 1.9 9.4-0.2 17.9-6.4l4.5-3.2v3c0 2.7 0.2 3.2 2.2 4.8 3.7 2.8 8.3 2.3 16.5-2.1 4.4-2.5 11.4-7.7 15.1-11.2 1.3-1.2 2.1-2.1 2.1-2.5 0-1.9-1-2.1-4.5 0.2zm-37.9 7.4c-2.4 1.8-6.1 4.1-8.2 5.3-4.8 2.7-5.9 2.9-5.3 0.6 1.3-5.2 11.5-13.5 15.5-13.3 0.4 0 0.8 0.2 1 0.4 0.3 0.1 0.9 1.2 1.2 2.3 0.6 1.7 0.4 1.9-3.8 4.9zm81.8-35.6c-11-0.1-19.8-0.3-19.8-0.5 0-0.2 1.2-2.5 2.9-5.1 3.2-5 3.3-6.9 0.8-6.6-1 0.2-2.5 2-5.4 6.2l-4.1 6h-3.7c-5.9 0-23.5 1.1-29.2 1.8-5.6 0.7-6.9 1.4-5.6 2.8 0.8 0.9 1.3 0.9 5.8 0.4 6.1-0.7 29.6-1.8 29.9-1.4 0.2 0.1-1.3 3-3.3 6.3-2 3.4-5.9 9.8-8.5 14.2-2.6 4.4-8.1 13.6-12.2 20.5-11.1 18.6-18.3 33.3-17 35.3 0.7 1.2 3.5 1.4 4.4 0.3 0.4-0.3 0.6-1.7 0.6-3 0-3.3 4.8-13.1 33.4-60.2 2.1-3.3 4.9-7.8 6.2-9.7 2-3.4 2.4-3.7 4.6-4.1 4.4-0.5 36.3-0.3 37 0.2 1.3 0.9 4.6 0.3 4.8-0.9 0.4-2.3-0.7-2.5-21.8-2.6zm-7.6 15.9c1.8-2.1 1.6-3.6-0.6-3.9-1.3-0.2-4.8 4.2-4.2 5.3 0.7 1.4 2.9 0.7 4.8-1.4zm15.7 14c-12 7.4-22.6 11.8-26.6 11.8-4.5 0-4.1-3 1.1-10.9 2.7-4.3 3.1-5.2 2.4-5.9-0.6-0.5-1.1-0.9-1.7-0.9-1.3 0-2.8 1.6-5.4 5.3-2.4 3.4-4.4 8.2-4.4 10.5 0 1.4 0.6 2.3 2 3.4 1.7 1.2 2.6 1.5 5.2 1.5 3.9 0 6.9-0.8 14.6-4.6 5.6-2.6 12.6-6.5 17.6-9.9 2.2-1.6 3.7-2.6 3.7-3-0.3-1.8-2.8-1-8.7 2.7zm48.5-3.4c-0.9-1.1-2.8-0.2-7.6 2.7-8.1 4.7-15.9 6.9-22 6.9h-3l1-2.5c1.6-4.1 1.3-6.2-1.7-8.9-0.9-0.7-2.4-1-3.9-1-1.5 0-2.9 0.3-4.1 1-0.9 0.6-2 1.1-2.5 1.3-0.6 0.2-2.3 1.7-3.8 3.5-5.9 6.9-7 13.1-2.7 16.1 2.4 1.6 4.4 1.8 7.7 0.7 2.5-0.7 7.4-4.6 8-6 0.4-0.7 1.1-0.9 4.3-0.9 7.5 0 14.9-1.7 24.6-7 5.2-2.9 6.6-4.7 5.9-5.5zm-39.6 13.9c-0.7 0.9-2.4 2.2-3.7 2.7-3 1.4-4.3 1.4-5.2-0.2-0.9-1.6-0.4-3.9 1.7-7.2l1.5-2.5 1.4 1.9c0.8 1.1 2.6 2.2 3.9 3l1.7 0.9zm4.2-7.8c-0.3 1.5-0.9 2.9-1.3 3.1-0.3 0.1-1.4-0.2-2.5-0.9-1.5-1.1-2.1-1.8-2.1-3 0-2 2.1-4.3 3.9-4.5 0.2 0 0.4 0 0.6 0 1.8 0.2 2.4 2 1.6 5.3zm90-5.6c-0.8-1.6-2.4-1.1-7.6 2.5-13 8.8-23 13.8-26.3 12.9-1.3-0.4-0.9-3.7 0.9-8 2.1-4.8 2.2-7.2 0.4-8.5-3.2-2.3-10 0.7-22.2 9.8-5.2 3.8-7.2 5.1-6.9 4.2 0.6-1.6 5-8.7 7.4-11.9 1.7-2.1 1.7-2.3 0.6-3.1-0.7-0.8-1.3-0.8-2-0.4-2.6 1.2-9.8 12.7-10.6 16.6-0.2 1.3 0 2.2 0.8 2.7 0.5 0.5 1.6 0.9 2.4 0.9 1.3 0 8.1-4.4 13.1-8.5 5-4.1 14.1-9.2 15-8.5 0.2 0.2-0.4 2.1-1.3 4.4-2.4 6-2.8 8.2-1.5 10.1 2.2 3.4 6.7 3.7 13.3 0.9 6.7-2.7 16.9-9.2 22.1-13.5 2-1.6 3.1-2.8 2.9-3.3zm83.8-11.2c1.9-2.1 1.7-3.5-0.5-3.9-1.3-0.2-4.8 4.3-4.3 5.3 0.8 1.4 3 0.7 4.8-1.4zm15.8 14c-12.1 7.4-22.6 11.9-26.7 11.9-4.4 0-4-3 1.1-11 2.8-4.3 3.2-5.1 2.4-5.9-0.5-0.5-1.1-0.8-1.6-0.8-1.3 0-2.8 1.6-5.4 5.3-2.4 3.3-4.4 8.1-4.4 10.4 0 1.4 0.5 2.3 2 3.4 1.7 1.2 2.6 1.6 5.2 1.6 3.9 0 6.8-0.9 14.6-4.6 5.6-2.7 12.6-6.6 17.6-9.9 2.2-1.6 3.7-2.7 3.7-3.1-0.4-1.7-2.8-1-8.7 2.7zm35.7-2.5c-2.8 1.1-8.5 2.9-13.7 4.8-5.2 2-9.8 3.7-10.3 4.1-1.3 0.9-1.7 0.3-2.6-3-1-3.4-0.4-5.5 1.6-6.6 1.7-0.9 1.7-1.9-0.2-2.6-0.3-0.2-0.7-0.2-1.1-0.2-1.6 0-3.5 1.4-4.6 3.7-0.9 1.9-0.9 2.7 0.2 6.7l1.1 4.6-1.5 0.7c-2.9 1.6-7.9 5-9.2 6.4-1.7 1.8-1.7 4.8 0 5.7 1.8 1 5.5 0.9 8.8-0.4 3.7-1.4 6.5-4.8 7.1-8.7l0.4-2.8 10.5-4.1c5.9-2.1 12.2-4.2 15-5.3 3.9-1.4 5-2.1 5-3 0-1.7-1.5-1.7-6.7 0.2zm-33.1 20.4c-1.1 0.7-2.8 1.2-3.7 1.2-1.5 0-1.7-0.2-1.1-1.1 0.7-1 7.2-5.6 7.9-5.6 1.7 0-0.5 3.5-3.3 5.3zm168.2-20.7c-0.7-1.6-2.4-1.1-7.6 2.4-12.9 8.9-22.9 13.9-26.2 13-1.3-0.4-1-3.7 0.9-8 2-4.8 2.2-7.3 0.4-8.5-3.2-2.3-10 0.7-22.3 9.7-5.1 3.9-7.2 5.2-6.8 4.3 0.6-1.6 5-8.7 7.4-11.9 1.7-2.1 1.7-2.3 0.6-3.2-0.8-0.7-1.3-0.7-2.1-0.3-2.6 1.2-9.8 12.7-10.5 16.6-0.2 1.3 0 2.2 0.7 2.7 0.6 0.5 1.7 0.9 2.4 0.9 1.3 0 8.2-4.5 13.2-8.5 5-4.1 14-9.2 15-8.5 0.1 0.2-0.4 2.1-1.3 4.4-2.5 6-2.8 8.1-1.5 10.1 2.2 3.4 6.6 3.7 13.3 0.9 6.7-2.7 16.8-9.2 22-13.5 2.1-1.6 3.2-2.8 3-3.3zm41.1-0.6c-1-1-2.8-0.1-7.6 2.7-8.2 4.8-15.9 6.9-22 6.9h-3l0.9-2.5c1.7-4.1 1.3-6.2-1.6-8.8-1-0.7-2.5-1.1-3.9-1.1-1.5 0-3 0.4-4.1 1.1-0.9 0.5-2 1-2.6 1.2-0.6 0.2-2.2 1.8-3.7 3.5-5.9 6.9-7 13.1-2.8 16.2 2.4 1.5 4.5 1.7 7.8 0.7 2.4-0.7 7.4-4.6 8-6.1 0.3-0.7 1.1-0.8 4.2-0.8 7.6 0 15-1.8 24.6-7.1 5.2-2.9 6.7-4.6 5.9-5.5zm-39.6 14c-0.7 0.9-2.4 2.1-3.7 2.6-2.9 1.4-4.2 1.4-5.1-0.2-1-1.5-0.4-3.8 1.6-7.2l1.5-2.5 1.5 2c0.7 1 2.6 2.1 3.9 3l1.6 0.9zm4.3-7.8c-0.4 1.4-0.9 2.8-1.3 3-0.4 0.2-1.5-0.2-2.6-0.9-1.5-1.1-2-1.8-2-3 0-2 2-4.3 3.9-4.4 0.1 0 0.3 0 0.5 0 1.9 0.1 2.4 1.9 1.7 5.3zm72.5-32.8c-10.9-0.2-19.8-0.3-19.8-0.5 0-0.2 1.3-2.5 3-5.2 3.1-4.9 3.3-6.9 0.7-6.5-0.9 0.2-2.4 1.9-5.3 6.2l-4.1 6h-3.7c-5.9 0-23.5 1.1-29.3 1.8-5.5 0.7-6.8 1.4-5.5 2.8 0.7 0.9 1.3 0.9 5.7 0.4 6.1-0.7 29.6-1.8 30-1.4 0.2 0.1-1.3 3-3.3 6.3-2.1 3.4-5.9 9.8-8.5 14.2-2.6 4.4-8.2 13.6-12.2 20.5-11.2 18.6-18.4 33.3-17.1 35.3 0.8 1.2 3.5 1.4 4.5 0.3 0.3-0.3 0.5-1.8 0.5-3 0-3.4 4.8-13.1 33.5-60.2 2.1-3.4 4.8-7.8 6.1-9.7 2.1-3.4 2.4-3.7 4.7-4.1 4.4-0.5 36.2-0.4 37 0.2 1.3 0.9 4.6 0.3 4.8-0.9 0.3-2.3-0.8-2.5-21.9-2.7zm97.7 28.2c-1.4 0.9-3.3 2.3-5.7 4.1-8.5 6.5-13.7 9.2-17.9 9.5-2.3 0.2-2.8 0-3.6-0.9-1.1-1.6-0.3-4.7 2.1-9 1.6-2.8 1.8-3.5 1.1-4.2-1.1-1.1-1.9-0.9-3.9 0.7l-1.8 1.4-1-1.8c-1.1-2.1-3.1-3.2-5.7-3.2-2 0-4.5 0.7-7 2.1-9.1 5-15.4 15.8-10.8 18.5 3.4 1.9 9.5-0.2 18-6.4l4.4-3.2v3c0 2.7 0.2 3.2 2.2 4.8 3.7 2.8 8.4 2.3 16.5-2.1 4.4-2.5 11.5-7.7 15.2-11.2 1.3-1.2 2-2.1 2-2.5 0-1.9-0.9-2.1-4.4 0.2zm-38 7.4c-2.4 1.8-6.1 4.1-8.1 5.4-4.8 2.6-5.9 2.8-5.4 0.5 1.3-5.1 11.5-13.5 15.6-13.3 0.3 0 0.7 0.2 0.9 0.4 0.4 0.1 0.9 1.2 1.3 2.3 0.6 1.7 0.4 1.9-3.9 4.9zm143.4-8.5c-2.8 0.9-5 1.3-7.6 1.3-4.4 0-5.3-1.1-6.8-3.2-2.2-3.6-3.2-3.4-10 1.7-5.6 4.3-5.7 4.3-4.3 2.2 1.3-2.2 1.3-2.3 0.4-3-1.7-1.5-2.9-0.4-7 6-4.8 7.4-6.9 12.2-5.8 13.3 0.4 0.3 1.2 0.7 1.7 0.7 0.6 0 3.5-2.7 6.7-6.1 6.3-6.5 13.3-13.1 14.2-13.1 0.4 0 1.3 0.8 2.2 1.6 2.3 2.2 5 3.6 10.4 3.2 3.3-0.2 7.2-1 9.6-2.1 1.5-0.7 2.4-1.4 2.4-1.9 0-1.6-1.8-1.6-5.9-0.2zm42 2.8c-12.6 9.4-20.9 13.5-27.4 13.5-4.6 0-7-1.5-7.2-4.3-0.2-1 0-2.5 0.4-3.2 0.5-1 0.9-0.5 4.6-0.7 2.2-0.2 4.4-0.5 6.5-2.3 3.7-3 3.9-6.2 0.7-7.6-0.7-0.3-1.5-0.5-2.2-0.5-5.7 0-13.7 6.7-14.4 12.9-0.6 4.4 2.7 7.6 9 8.7 8.2 1.2 17.6-2.7 31.3-13 4.3-3.1 6.1-5.3 6.1-5.8 0.2-1.1-0.5-2.5-7.2 2.5zm-29.6 0.2c1.8-1.5 4.1-2.5 5-2.5 0.2 0 0.4 0 0.4 0 0.7 0.5-0.8 2.5-2.6 3.3-2.4 1.1-2.4 1.1-3.5 0.6-0.6-0.4-0.4-0.9 0.9-2zm82.9-3.9c-0.9-0.3-2.1 0.2-5.4 2.5-9.2 6.4-14.8 8.3-23.1 10.1l-4.6 1.1 2.5-3c6.3-7.1 6.3-13 0-13-5.1 0-13.6 6.6-22.2 17-2 2.7-3.8 4.8-4 4.8-0.2 0 0.7-1.6 2-3.5 7.6-11.9 11.1-17.9 10.7-18.6-0.1-0.4-0.7-0.5-1.4-0.5-0.2 0-0.4 0-0.6 0-1.3 0.1-3 2.3-9.2 12-7.3 11.1-21.1 34.3-23.2 38.6-0.5 1-0.7 2.3-0.5 2.8 0.5 1.1 2 1.1 3.3 0 0.6-0.3 5.4-6.5 10.7-13.8 11.5-15.4 11.9-15.7 13-14.9 1.6 1.5 6.3 0.4 11.3-2.6 1.1-0.7 3.3-1.4 5-1.6 4.6-0.5 12.7-2.5 17.4-4.3 5.5-2.1 12-5.5 16.4-8.8 1.7-1.3 2.6-2.1 2.6-2.7 0-0.3-0.5-0.9-1.1-1.2zm-42.6 15c-0.9 0-2.7 0.4-4.2 0.7l-2.8 0.8 0.8-1.1c2.9-4.4 12.2-12.2 15.9-13.8 1.6-0.7 2.2-0.9 2.4 0.3 0.7 3.4-8.9 13.3-12.1 13.3zm81.1-15c-0.6 0-5.4 3.7-8.1 5.6-4.1 2.9-10.6 7.5-12.6 8.7-8.4 5-15.6 6.6-18.3 4.1-1.9-1.6-1.5-7.1 0.9-13.5 1.8-4.8 2-5.1 4.2-5.8 1.3-0.4 4.3-1.8 6.7-3 21.7-11.9 36.3-31 27.6-36.1-1-0.6-1.5-0.8-2.1-0.8-0.5 0-1.3 0.2-2.7 0.6-8.4 2.5-21.7 15.2-30.4 29-8.5 13.5-11.8 23.6-9.6 28.9 0.9 1.9 3 3.9 4.8 4.4 4.6 1.4 11.7-0.2 20.2-4.8 4.4-2.5 13.1-8.8 17.9-13.1 1.7-1.6 2.8-2.6 2.8-3-0.2-0.5-0.7-1.1-1.3-1.1zm-29.1-13.1c6.9-9.9 19.1-21.6 25.2-24 0.9-0.4 1.5-0.6 1.9-0.6 0.3 0 0.5 0.2 0.7 0.7 0.9 2.3-2.8 9.3-7.8 14.4-4.2 4.4-11.6 10.3-17.9 14.1-3.2 2-6.1 3.6-6.5 3.6-0.7 0 1.3-3.7 4.4-8.3zm71.3 15c-1.5 0.9-3.3 2.3-5.7 4.1-8.6 6.5-13.7 9.2-18 9.5-2.2 0.2-2.8 0-3.5-0.8-1.1-1.6-0.4-4.8 2-9.1 1.7-2.8 1.9-3.5 1.1-4.2-1.1-1.1-1.8-0.9-3.8 0.7l-1.9 1.4-0.9-1.8c-1.1-2.1-3.2-3.1-5.8-3.1-2 0-4.4 0.7-7 2.1-9.1 4.9-15.4 15.7-10.7 18.4 3.3 1.9 9.4-0.2 17.9-6.4l4.5-3.2v3c0 2.7 0.2 3.2 2.2 4.8 3.7 2.9 8.3 2.3 16.5-2.1 4.4-2.5 11.4-7.6 15.1-11.2 1.3-1.2 2.1-2.1 2.1-2.4 0-2-1-2.2-4.5 0.1zm-37.9 7.5c-2.4 1.7-6.1 4-8.2 5.3-4.8 2.6-5.9 2.8-5.3 0.5 1.3-5.1 11.5-13.4 15.5-13.3 0.4 0 0.8 0.2 0.9 0.4 0.4 0.2 1 1.2 1.3 2.3 0.6 1.8 0.4 1.9-3.8 5zm73.1-5.2c-16.3 10.6-26.3 14-33.2 12.6-4.4-0.9-5.2-3.9-2-9 1.8-3.2 6.8-7.3 8.3-6.9 0.4 0.1 0.9 0.8 1.1 1.7 0.6 2.1 1.1 2.9 2.6 2.9 3.2 0 1.7-6.1-1.8-7.3-5.6-1.9-13.7 4.2-15.9 12.2-1.3 4.4 1.6 8.5 6.4 9.4 1 0.2 2.1 0.4 2.4 0.5 2.6 0.7 10.4-0.9 16-3.2 7-3 15.7-7.7 21.4-11.8 2.4-1.8 3.9-3.2 3.9-3.7 0-2.2-2.6-1.3-9.1 3zm37.4-0.6c-12.6 9.4-20.9 13.5-27.4 13.5-4.6 0-7-1.4-7.2-4.3-0.2-1 0-2.4 0.4-3.1 0.5-1.1 0.9-0.6 4.6-0.7 2.2-0.2 4.5-0.6 6.5-2.4 3.7-3 3.9-6.1 0.7-7.6-0.7-0.3-1.5-0.5-2.2-0.5-5.7 0-13.7 6.7-14.4 12.9-0.6 4.5 2.7 7.6 9 8.7 8.2 1.2 17.6-2.7 31.3-12.9 4.3-3.2 6.1-5.3 6.1-5.9 0.2-1-0.5-2.4-7.2 2.5zm-29.6 0.2c1.8-1.4 4.1-2.5 5-2.5 0.2 0 0.4 0 0.4 0 0.7 0.5-0.8 2.5-2.6 3.4-2.4 1-2.4 1-3.5 0.5-0.6-0.3-0.4-0.9 0.9-1.9zm109.9-3c-0.7-1.6-2.6-0.8-8.5 3.5-10.6 7.6-15.6 11-20.7 12.4-2.8 0.7-3.2 0.7-3.9-0.2-0.9-1.1-0.9-0.7 1.5-8.5 1.6-5.7 1.6-6 0.5-7.2-0.9-1.3-1.5-1.5-3.7-1.3-2.9 0.4-5.9 1.8-13.1 6.7l-5.2 3.6 0.5-3c1.2-6.2 0-8.3-4-8.3-3.5 0-7.6 2.4-15.8 9.2-2.2 1.7-4 3.1-4.2 3.1-0.2 0 0.7-2.1 2-4.6 3.4-6.9 3.9-8.5 3-9.2-0.4-0.3-1.1-0.5-1.7-0.3-2.2 0.7-9 15.2-9 19.5 0 2.1 0.1 2.3 1.6 2.4 1.5 0.2 2.4-0.3 5.6-3.3 8.1-7.8 15.7-13.5 18.1-13.5 0.7 0 0.7 0.5 0.4 3.7-0.8 5.2-0.6 6.8 0.7 7.5 1.9 1 4.1 0.1 9.8-3.7 6.3-4.3 10.9-7 11.5-6.4 0.2 0.2 0 1.2-0.4 2.5-0.3 1.2-1.3 4-1.8 6.2-1.3 4.4-0.8 6.5 1.8 7.6 5.6 2.1 13.2-0.9 27-10.8 8.6-6.1 8.9-6.4 8.4-7.6zm29.6 2.8c-12.6 9.4-20.9 13.4-27.4 13.4-4.6 0-7-1.4-7.2-4.2-0.2-1.1 0-2.5 0.3-3.2 0.6-1.1 1-0.5 4.7-0.7 2.2-0.2 4.4-0.5 6.4-2.3 3.8-3 3.9-6.2 0.8-7.6-0.8-0.4-1.5-0.5-2.2-0.5-5.8 0-13.7 6.7-14.5 12.9-0.5 4.4 2.8 7.6 9.1 8.7 8.1 1.2 17.6-2.7 31.3-13 4.2-3.2 6.1-5.3 6.1-5.8 0.2-1.1-0.6-2.5-7.2 2.5zm-29.6 0.1c1.8-1.4 4-2.4 5-2.4 0.1 0 0.3 0 0.3 0 0.8 0.5-0.7 2.4-2.6 3.3-2.4 1.1-2.4 1.1-3.5 0.6-0.5-0.4-0.4-0.9 0.9-2zm91.5-3c-0.8-1.6-2.4-1.1-7.6 2.5-13 8.8-23 13.8-26.3 12.9-1.3-0.4-0.9-3.7 0.9-8 2.1-4.7 2.2-7.2 0.4-8.5-3.2-2.3-10 0.7-22.2 9.8-5.2 3.9-7.2 5.1-6.9 4.2 0.6-1.6 5-8.7 7.4-11.8 1.7-2.2 1.7-2.3 0.6-3.2-0.7-0.7-1.3-0.7-2-0.4-2.6 1.3-9.8 12.8-10.6 16.7-0.2 1.2 0 2.1 0.8 2.6 0.5 0.5 1.6 0.9 2.4 0.9 1.3 0 8.1-4.4 13.1-8.5 5-4.1 14.1-9.2 15-8.5 0.2 0.2-0.4 2.1-1.3 4.4-2.4 6.1-2.8 8.2-1.5 10.1 2.2 3.4 6.7 3.7 13.3 0.9 6.7-2.6 16.9-9.2 22.1-13.4 2-1.6 3.1-2.9 2.9-3.4zm39.1-27.1c-11-0.2-19.8-0.3-19.8-0.5 0-0.2 1.3-2.5 2.9-5.2 3.2-4.9 3.4-6.9 0.8-6.5-1 0.2-2.4 1.9-5.4 6.2l-4.1 6h-3.7c-5.9 0-23.5 1.1-29.2 1.8-5.6 0.7-6.9 1.4-5.6 2.8 0.8 0.9 1.3 0.9 5.8 0.4 6.1-0.7 29.6-1.8 29.9-1.5 0.2 0.2-1.2 3.1-3.3 6.4-2 3.4-5.9 9.8-8.5 14.2-2.6 4.4-8.1 13.6-12.2 20.5-11.1 18.6-18.3 33.3-17 35.2 0.7 1.3 3.5 1.5 4.4 0.4 0.4-0.4 0.6-1.8 0.6-3 0-3.4 4.8-13.1 33.5-60.2 2-3.4 4.8-7.8 6.1-9.7 2-3.4 2.4-3.8 4.6-4.1 4.4-0.5 36.3-0.4 37 0.2 1.3 0.9 4.6 0.3 4.8-0.9 0.4-2.3-0.7-2.5-21.8-2.7zm-1497.7 133.8c-5.4 2.5-15.8 5.9-19.5 6.6-2.2 0.3-5.7 0.9-7.7 1-3.6 0.4-3.9 0.4-3.6-0.5 1.3-2.8 15-23.7 20-30.4 9.1-12.3 9.6-13 9.3-13.9-0.2-0.5-1-0.8-1.7-0.8-1.1 0-2.8 1.6-7.8 8.1-6.6 8.7-15.1 21.2-21.2 31.5l-3.7 6.2-3 0.2c-3.5 0.3-4.1 1.6-1.3 3.2l2 1-1.6 3c-1 1.6-2.6 5.7-3.9 8.9-5 12.9-5.6 19.7-2.1 22 5 3.3 12.8-1.8 16.9-11.2 1.5-3.2 1.8-5 1.8-9.9 0-5.1-0.1-6.2-1.4-8.5-1-1.4-2.3-3.2-3-3.9-0.7-0.7-1.3-1.4-1.1-1.6 0.2-0.2 3.1-0.5 6.6-0.9 9.5-0.9 18.4-3.4 28.2-8 2.8-1.4 2.9-2.3 2.9-2.8 0-1.4-2-0.9-4.6 0.4zm-30.7 22.3c0.7 6.3-3.7 17.1-8.3 20.2-3.4 2.1-3.9 1.7-3.9-2.3 0-4.5 6.5-23.2 8.7-25 0 0 0 0 0 0 0.9 0 3.1 4.4 3.5 7.3zm74.4-23.6c-0.9-1.1-2.8-0.2-7.6 2.7-8.1 4.7-15.9 6.9-22 6.9h-3l0.9-2.5c1.7-4.1 1.3-6.2-1.6-8.9-1-0.7-2.4-1-3.9-1-1.5 0-3 0.3-4.1 1-0.9 0.6-2 1.1-2.6 1.3-0.5 0.2-2.2 1.7-3.7 3.5-5.9 6.9-7 13.1-2.8 16.1 2.5 1.6 4.5 1.8 7.8 0.7 2.4-0.7 7.4-4.6 8-6 0.3-0.7 1.1-0.9 4.2-0.9 7.6 0 15-1.7 24.6-7.1 5.2-2.8 6.7-4.6 6-5.4zm-39.6 13.9c-0.8 0.9-2.4 2.2-3.7 2.7-3 1.4-4.3 1.4-5.2-0.2-0.9-1.6-0.4-3.9 1.6-7.2l1.5-2.5 1.5 1.9c0.8 1.1 2.6 2.2 3.9 3l1.7 0.9zm4.2-7.8c-0.4 1.5-0.9 2.9-1.3 3-0.3 0.2-1.5-0.1-2.6-0.8-1.4-1.1-2-1.8-2-3 0-2 2-4.3 3.9-4.5 0.2 0 0.4 0 0.5 0 1.9 0.2 2.4 2 1.7 5.3zm63.5-5.6c-2.8 0.9-5 1.2-7.6 1.2-4.5 0-5.4-1-6.9-3.2-2.2-3.5-3.1-3.3-10 1.8-5.5 4.2-5.7 4.2-4.2 2.1 1.3-2.1 1.3-2.3 0.4-3-1.7-1.4-3-0.3-7.1 6-4.8 7.5-6.8 12.2-5.7 13.3 0.4 0.4 1.1 0.7 1.7 0.7 0.5 0 3.5-2.6 6.6-6 6.3-6.6 13.3-13.1 14.3-13.1 0.3 0 1.3 0.7 2.2 1.6 2.2 2.1 5 3.5 10.4 3.2 3.3-0.2 7.2-1.1 9.6-2.1 1.5-0.8 2.4-1.5 2.4-2 0-1.6-1.9-1.6-5.9-0.2zm138.6 0c-0.6-1-1.7-0.7-3.6 0.4-1.6 0.9-12.2 8.1-16.8 10.4-3.9 2-5.4 2.5-7.2 2.3-1.9-0.1-2.4-0.1-2.6-2.8l-0.2-3.7c-0.4-5.5-0.5-6.4-1.6-7.1-0.8-0.4-1.9-0.7-2.6-0.7-2.4 0-9.7 3.7-15.6 8.1-3.1 2.3-5.9 4.1-6.1 3.9-0.4-0.3 5.6-10.6 10-17.1 5.6-8.4 12.8-18.3 19.4-26.6 3.2-3.9 5-6.6 5-6.9 0.4-1.6-0.7-2-2.4-1.4-4.4 1.2-29.6 35.9-36.2 49.9-3 6.4-3.4 8-2.3 9 0.4 0.4 1.3 0.7 1.9 0.7 0.5 0 4.6-2.6 9.1-6 7.2-5.3 14.8-9.9 16.2-9.9 0.4 0 0.6 2.1 0.6 4.6 0 2.5 0.4 5.3 0.7 6.2 1.3 2.8 6.7 3.9 11.7 2.3 4.8-1.6 15.7-8.7 20.5-12.9 1.5-1.4 2.4-2.5 2.3-2.8zm48.8 0c-0.6-1.1-2-0.8-3.3 0.1-1.1 0.7-2.6 1.6-4.1 2.7-16.3 10.6-26.3 14.3-26.3 9.7 0-0.7 1-3.5 2.1-6.2 1.1-2.6 1.8-5.3 1.6-5.6-0.9-2-2.6-1.3-9.2 3.9-7.4 5.6-12.8 9.3-13.7 9.3-0.9 0-0.8-2.8 0.3-5.3 0.6-1.2 2.1-3.9 3.4-6 2.2-3.5 2.4-3.9 1.5-4.6-1.9-1.4-3.2-0.5-6.3 4.4-3.7 6-5 10.7-3.4 12.6 2.8 3.2 7.1 2.1 15.2-4.1l5-3.9-0.4 3.6c-0.3 3.2 1 6.7 6.3 6.9 4.7 0.2 13.9-4.1 23.9-10.6 7.2-4.6 8-5.5 7.2-6.8zm73.5 0c-0.8-1.6-2.6-0.7-8.5 3.6-10.6 7.6-15.6 10.9-20.8 12.4-2.7 0.7-3.1 0.7-3.8-0.2-1-1.1-1-0.7 1.4-8.5 1.7-5.7 1.7-6 0.6-7.3-0.9-1.2-1.5-1.4-3.7-1.2-3 0.3-5.9 1.8-13.1 6.7l-5.2 3.6 0.5-3.1c1.1-6.1 0-8.3-4-8.3-3.6 0-7.6 2.5-15.8 9.2-2.2 1.8-4 3.2-4.2 3.2-0.2 0 0.7-2.1 2-4.6 3.3-6.9 3.9-8.5 3-9.2-0.4-0.3-1.1-0.5-1.7-0.3-2.2 0.7-9.1 15.2-9.1 19.4 0 2.2 0.2 2.3 1.7 2.5 1.5 0.2 2.4-0.3 5.6-3.4 8.1-7.7 15.7-13.4 18.1-13.4 0.7 0 0.7 0.5 0.4 3.7-0.8 5.1-0.6 6.7 0.7 7.4 1.8 1.1 4.1 0.2 9.8-3.7 6.3-4.2 10.9-6.9 11.5-6.3 0.2 0.1 0 1.2-0.4 2.4-0.4 1.3-1.3 4.1-1.8 6.2-1.3 4.5-0.8 6.6 1.8 7.6 5.6 2.2 13.1-0.8 27-10.8 8.5-6 8.9-6.3 8.4-7.6zm40.7 1.1c-1.5 0.9-3.4 2.3-5.8 4.1-8.5 6.5-13.7 9.2-17.9 9.5-2.2 0.2-2.8 0-3.5-0.9-1.1-1.6-0.4-4.7 2-9 1.7-2.8 1.8-3.5 1.1-4.2-1.1-1.1-1.8-0.9-3.9 0.7l-1.8 1.4-1-1.8c-1.1-2.1-3.1-3.2-5.7-3.2-2 0-4.4 0.7-7 2.2-9.1 4.9-15.4 15.7-10.8 18.4 3.4 1.9 9.5-0.2 18-6.4l4.4-3.2v3c0 2.7 0.2 3.2 2.3 4.8 3.7 2.8 8.3 2.3 16.4-2.1 4.5-2.5 11.5-7.6 15.2-11.2 1.3-1.2 2-2.1 2-2.5 0-1.9-0.9-2.1-4.4 0.2zm-37.9 7.4c-2.4 1.8-6.1 4.1-8.2 5.4-4.8 2.6-5.9 2.8-5.3 0.5 1.2-5.1 11.4-13.5 15.5-13.3 0.4 0 0.7 0.2 0.9 0.4 0.4 0.1 0.9 1.2 1.3 2.3 0.6 1.7 0.4 1.9-3.9 4.9zm96.6-8.5c-0.7-1.6-2.4-1-7.6 2.5-12.9 8.9-22.9 13.8-26.2 12.9-1.3-0.3-1-3.7 0.9-7.9 2-4.8 2.2-7.3 0.4-8.5-3.2-2.3-10 0.7-22.2 9.7-5.2 3.9-7.3 5.1-6.9 4.3 0.6-1.6 5-8.7 7.4-11.9 1.7-2.1 1.7-2.3 0.6-3.2-0.8-0.7-1.3-0.7-2.1-0.3-2.6 1.2-9.8 12.7-10.5 16.6-0.2 1.2 0 2.1 0.7 2.6 0.6 0.6 1.7 0.9 2.4 0.9 1.3 0 8.2-4.4 13.2-8.5 5-4 14-9.2 15-8.5 0.1 0.2-0.4 2.2-1.3 4.5-2.4 6-2.8 8.1-1.5 10.1 2.2 3.3 6.6 3.7 13.3 0.8 6.7-2.6 16.8-9.2 22-13.4 2.1-1.6 3.2-2.8 3-3.4zm83.8-11.1c1.9-2.2 1.7-3.6-0.5-3.9-1.3-0.2-4.9 4.2-4.3 5.3 0.7 1.4 3 0.7 4.8-1.4zm15.7 14c-12 7.4-22.5 11.8-26.6 11.8-4.4 0-4.1-3 1.1-11 2.8-4.2 3.1-5.1 2.4-5.8-0.5-0.5-1.1-0.9-1.7-0.9-1.3 0-2.7 1.6-5.3 5.3-2.4 3.4-4.5 8.2-4.5 10.5 0 1.4 0.6 2.3 2.1 3.3 1.6 1.3 2.6 1.6 5.2 1.6 3.8 0 6.8-0.9 14.6-4.6 5.5-2.6 12.6-6.5 17.6-9.9 2.2-1.6 3.7-2.6 3.7-3-0.4-1.8-2.8-1.1-8.7 2.7zm63.8-2.9c-0.7-1.6-2.4-1-7.6 2.5-12.9 8.9-22.9 13.8-26.3 12.9-1.3-0.3-0.9-3.7 1-7.9 2-4.8 2.2-7.3 0.3-8.5-3.1-2.3-10 0.7-22.2 9.7-5.2 3.9-7.2 5.1-6.8 4.2 0.5-1.5 5-8.6 7.4-11.8 1.6-2.1 1.6-2.3 0.5-3.2-0.7-0.7-1.3-0.7-2-0.4-2.6 1.3-9.8 12.8-10.5 16.7-0.2 1.2 0 2.1 0.7 2.6 0.5 0.6 1.7 0.9 2.4 0.9 1.3 0 8.1-4.4 13.1-8.5 5-4 14.1-9.2 15-8.5 0.2 0.2-0.3 2.2-1.3 4.5-2.4 6-2.7 8.1-1.5 10 2.3 3.4 6.7 3.8 13.4 0.9 6.6-2.6 16.8-9.2 22-13.4 2-1.6 3.1-2.9 3-3.4zm39-27.1c-10.9-0.2-19.8-0.3-19.8-0.5 0-0.2 1.3-2.5 3-5.1 3.1-5 3.3-6.9 0.7-6.6-0.9 0.2-2.4 2-5.4 6.2l-4 6h-3.7c-6 0-23.5 1.1-29.3 1.8-5.5 0.7-6.8 1.4-5.5 2.8 0.7 0.9 1.3 0.9 5.7 0.4 6.1-0.7 29.6-1.8 30-1.4 0.2 0.1-1.3 3-3.3 6.3-2.1 3.4-6 9.8-8.6 14.2-2.5 4.4-8.1 13.6-12.2 20.5-11.1 18.6-18.3 33.3-17 35.3 0.7 1.2 3.5 1.4 4.4 0.3 0.4-0.3 0.6-1.7 0.6-3 0-3.3 4.8-13.1 33.5-60.2 2-3.3 4.8-7.8 6.1-9.7 2-3.4 2.4-3.7 4.6-4.1 4.5-0.5 36.3-0.3 37 0.2 1.3 0.9 4.7 0.3 4.9-0.9 0.3-2.3-0.8-2.5-21.9-2.7zm8.3 30c-12.5 9.4-20.9 13.4-27.3 13.4-4.7 0-7.1-1.4-7.3-4.2-0.1-1.1 0-2.5 0.4-3.2 0.6-1.1 0.9-0.5 4.6-0.7 2.3-0.2 4.5-0.6 6.5-2.3 3.7-3 3.9-6.2 0.8-7.6-0.8-0.4-1.5-0.6-2.3-0.6-5.7 0-13.7 6.8-14.4 13-0.6 4.4 2.8 7.6 9.1 8.6 8.1 1.3 17.5-2.6 31.2-12.9 4.3-3.2 6.1-5.3 6.1-5.8 0.2-1.1-0.5-2.5-7.2 2.4zm-29.6 0.2c1.9-1.4 4.1-2.5 5-2.5 0.2 0 0.4 0 0.4 0 0.7 0.6-0.8 2.5-2.6 3.4-2.4 1.1-2.4 1.1-3.5 0.5-0.6-0.3-0.4-0.8 0.9-1.9zm102.2-42.9c-10 7.8-23.5 25.7-30.2 39.7-2.4 5.1-2.6 5.3-6.9 8-13.1 8.5-24.6 12.2-28.3 9.2-1.8-1.4-2.4-4.4-1.5-8.3 1.2-4.8 3.8-10.5 4.9-10.8 11.6-2.7 28.6-17.9 31.8-28.5 0.9-3.1 0.2-6.1-1.7-6.6-3.9-1.2-7.6 0.2-13.9 5.5-8.5 7.1-17.5 19.5-22.2 30.1-5.1 11.5-5 17.9 0.6 21.2 1.5 0.9 3 1.1 6.8 1.1 4.5 0 5.6-0.2 10-2 2.8-1 7.3-3.1 10-4.7 2.8-1.6 5.2-3 5.6-3.2 0.3-0.2 0.5 1.9 0.3 5.8-0.3 6.9 0.6 9.2 4.1 11 4.1 1.9 10.4 0.4 19.6-5 4.7-2.6 9.5-6.2 20.2-15 3.3-2.8 5.4-4.8 6.7-5.8 2.7-2.3 0.9-3.8-1.9-1.8-2.4 1.8-7.4 5.5-12.9 9.7-13.2 10.3-16.5 12.2-23 14.7-5.2 2.1-7.4 1.3-8.3-3.2-0.6-2.3 0.5-9.4 2-13.3 0.8-2.1 1.9-3.3 6.9-7.2 11.3-8.7 21.8-20 27.9-29.9 5.6-9.1 6.1-13.8 1.7-14.7-0.4 0-0.8 0-1.1 0-1.9 0-3.9 1-7.1 3.5zm7.3-0.5c0.5 0.5-1.9 5.8-5 10.8-3.2 4.8-10.4 13.3-16.1 18.8-2.4 2.3-5.8 5.1-7.4 6.3-3.6 2.7-3.6 2.5 1.1-5.3 5.9-9.9 15.9-22.1 22.9-28 2-1.6 3.9-2.8 4.3-2.8 0 0 0 0 0 0zm-43.7 12.9c-3.9 6.6-11.1 13.7-18.5 18.1-4.4 2.6-5.6 3.2-5.6 2.5 0-0.7 7.1-11.4 9.5-14.4 5.9-7.2 13.9-14 16.4-14 1.2 0 0 4.5-1.8 7.5zm61.8 16.3c1.9-2.2 1.7-3.6-0.5-3.9-1.3-0.2-4.9 4.2-4.3 5.3 0.7 1.4 3 0.7 4.8-1.4zm15.7 14c-12 7.4-22.5 11.8-26.6 11.8-4.5 0-4.1-3 1.1-11 2.8-4.2 3.1-5.1 2.4-5.8-0.6-0.5-1.1-0.9-1.7-0.9-1.3 0-2.7 1.6-5.3 5.3-2.4 3.4-4.5 8.2-4.5 10.5 0 1.4 0.6 2.3 2.1 3.3 1.6 1.3 2.6 1.6 5.1 1.6 3.9 0 6.9-0.9 14.7-4.6 5.5-2.6 12.5-6.5 17.5-9.9 2.3-1.6 3.7-2.6 3.7-3-0.3-1.8-2.7-1.1-8.7 2.7zm53.3-3.8c0 0-0.1 0-0.3 0-0.8 0-2.8 0.6-5.4 1.5-4.4 1.5-7.4 2.6-12.6 5.1-4.8 2.3-5.5 2.5-5.2 1.4 0.2-0.7 0.6-2.7 0.8-4.4 0.4-2.9 0.2-3.4-1.1-4.3-2.1-1.6-4.1-1.4-8.5 0.9-3.4 1.8-3.9 2-4.3 1.3-0.2-0.6-1.1-1.5-2-2.2-1.5-1-2.3-1.2-5-1-2.8 0.1-3.5 0.5-7.1 3.5-8.1 6.7-11.2 16.1-5.7 17.2 3.1 0.7 6.1-0.9 16.3-8.9 9.2-7.1 12.4-9 13.5-8.1 0.2 0.2-0.6 2.6-1.7 5.5-1.8 4.6-2.4 5.3-4.8 6.7-5 2.8-14.6 8.8-21.3 13.5-14.6 10-21.1 18.7-16.8 22.3 3.3 2.8 11.5 0.3 20-6.2 6.6-5.2 13.3-12.4 19.2-21.1 2.4-3.5 4.8-6.9 5.4-7.6 1.1-1.6 4.6-3.6 16.8-8.7 2.4-1.1 4.5-1.9 6-2.6 4.4-2.2 5.1-3.2 3.5-3.9zm-46.1 10.2c-9.1 7.1-10.4 7.5-7.8 2.1 1.9-3.7 6.9-9 9.6-10.2 1.3-0.5 1.9-0.7 2.3-0.7 0.3 0 0.5 0.2 0.9 0.7 0.5 0.5 1.3 1.2 1.7 1.6 0.3 0.3-1.9 2.5-6.9 6.3zm4.5 17.2c-6.3 8.2-14.5 15.4-20.8 18.6-1.5 0.7-3.5 1.4-4.4 1.6-1.7 0.4-1.9 0.2-1.9-1.2 0-3.8 10.4-13 24.5-22 4.8-3 7.4-4.8 7.9-4.8 0.6 0-1.5 2.3-5.5 7.5zm71.8-23.8c-12.6 9.4-20.9 13.5-27.4 13.5-4.6 0-7.1-1.4-7.2-4.3-0.2-1 0-2.4 0.3-3.1 0.6-1.1 1-0.6 4.7-0.7 2.2-0.2 4.4-0.6 6.4-2.3 3.7-3.1 3.9-6.2 0.8-7.7-0.8-0.3-1.5-0.5-2.2-0.5-5.8 0-13.7 6.7-14.5 12.9-0.5 4.5 2.8 7.6 9.1 8.7 8.1 1.2 17.6-2.6 31.3-12.9 4.2-3.2 6.1-5.3 6.1-5.9 0.2-1-0.6-2.4-7.2 2.5zm-29.7 0.2c1.9-1.4 4.1-2.5 5-2.5 0.2 0 0.4 0 0.4 0 0.8 0.6-0.7 2.5-2.6 3.4-2.4 1-2.4 1-3.5 0.5-0.6-0.3-0.4-0.9 0.9-1.9zm91.4-3c-0.7-1.6-2.4-1.1-7.5 2.4-13 8.9-23 13.8-26.3 13-1.3-0.4-0.9-3.8 0.9-8 2-4.8 2.2-7.3 0.4-8.5-3.2-2.3-10 0.7-22.2 9.7-5.2 3.9-7.2 5.2-6.9 4.3 0.6-1.6 5-8.7 7.4-11.9 1.7-2.1 1.7-2.3 0.6-3.2-0.8-0.7-1.3-0.7-2.1-0.3-2.5 1.2-9.8 12.7-10.5 16.6-0.2 1.3 0 2.1 0.7 2.7 0.6 0.5 1.7 0.9 2.4 0.9 1.3 0 8.2-4.5 13.2-8.5 5-4.1 14-9.2 15-8.5 0.2 0.1-0.4 2.1-1.3 4.4-2.4 6-2.8 8.1-1.5 10.1 2.2 3.3 6.7 3.7 13.3 0.9 6.7-2.7 16.9-9.2 22-13.5 2.1-1.6 3.2-2.8 3-3.4zm30.7 3.4c-16.3 10.6-26.3 14-33.1 12.6-4.4-0.9-5.2-3.9-2-9 1.8-3.2 6.8-7.3 8.3-7 0.4 0.2 0.9 0.9 1.1 1.8 0.6 2.1 1.1 2.9 2.6 2.9 3.1 0 1.7-6.1-1.9-7.3-5.5-2-13.7 4.2-15.9 12.2-1.3 4.4 1.7 8.5 6.5 9.4 0.9 0.2 2 0.3 2.4 0.5 2.6 0.7 10.4-0.9 15.9-3.2 7.1-3 15.7-7.8 21.5-11.8 2.4-1.8 3.9-3.2 3.9-3.7 0-2.2-2.6-1.3-9.1 3zm37.4-0.6c-12.6 9.4-20.9 13.5-27.4 13.5-4.6 0-7-1.4-7.2-4.3-0.2-1 0-2.4 0.4-3.1 0.5-1.1 0.9-0.6 4.6-0.8 2.2-0.1 4.4-0.5 6.5-2.3 3.7-3 3.8-6.2 0.7-7.6-0.7-0.3-1.5-0.5-2.2-0.5-5.8 0-13.7 6.7-14.5 12.9-0.5 4.5 2.8 7.6 9.1 8.7 8.1 1.2 17.6-2.7 31.3-12.9 4.2-3.2 6.1-5.3 6.1-5.9 0.2-1-0.6-2.4-7.2 2.5zm-29.6 0.2c1.8-1.4 4-2.5 5-2.5 0.1 0 0.3 0 0.3 0 0.8 0.5-0.7 2.5-2.6 3.4-2.4 1-2.4 1-3.5 0.5-0.5-0.3-0.3-0.9 0.9-1.9zm41.1 14.7c-1.6 0-2.4 1.2-1.5 2.6 0.6 0.7 0.4 1.2-1.2 2.7-1.9 1.7-2.5 3-1.5 3.7 1.1 0.9 2.6 0.2 5.3-2.5 3.2-3 2.6-6.4-1.1-6.4zm133.1-17.3c-0.4-2.1-2.4-1.1-7.1 2.3-4.4 3.3-8.6 4.4-13.3 6-2.4 0.9-9.6 2.1-10.2 1.8-0.1 0 0.6-1.4 1.7-3.2 2.6-4.1 2.8-6.9 0.4-8.9-3.9-3-10.9-0.3-20.9 7.8l-5.8 4.8 2.3-4.1c7.7-14.1 14.9-25.3 23.8-37.3 2.8-3.7 5-7.3 4.8-7.8-0.3-1.3-2.7-1.4-4-0.4-1.7 1.4-13.4 17.6-18 24.8-5.7 8.9-12.6 21.3-15.3 27.8-2.4 5.5-2.8 7.1-2.1 7.8 1.3 1.1 3.2 0 8.2-5 8.8-9 18.8-16.2 22.5-16.2 2.6 0 1.2 4.4-2.9 8.3-1.7 1.6-2.4 1.9-5.4 2.3-4.1 0.3-7.6 1.4-9.6 2.8-5.6 4.1 4.6 5.7 11.8 1.8 2.8-1.6 4.3-2 8-2.3 11.3-0.9 16.6-2.1 26.5-9.2 2.9-2.1 4-3.4 3.8-4.1zm49.8-0.4c-0.5-1-2-0.7-3.3 0.2-1.1 0.7-2.6 1.6-4.1 2.7-16.3 10.6-26.3 14.3-26.3 9.7 0-0.7 1-3.5 2.1-6.2 1.1-2.6 1.8-5.3 1.6-5.6-0.9-2-2.5-1.3-9.2 3.9-7.4 5.6-12.8 9.3-13.7 9.3-0.9 0-0.7-2.8 0.4-5.3 0.5-1.2 2-3.9 3.3-6 2.2-3.5 2.4-3.9 1.5-4.6-1.9-1.4-3.2-0.5-6.3 4.4-3.7 6-5 10.6-3.3 12.6 2.7 3.2 7 2.1 15.1-4.1l5-3.9-0.3 3.6c-0.4 3.2 0.9 6.7 6.2 6.9 4.7 0.2 13.9-4.1 23.9-10.6 7.2-4.6 8-5.5 7.2-6.8zm39.5-27.1c-11-0.1-19.9-0.3-19.9-0.5 0-0.2 1.3-2.5 3-5.1 3.2-5 3.3-6.9 0.8-6.6-1 0.2-2.5 2-5.4 6.2l-4.1 6h-3.7c-5.9 0-23.5 1.1-29.2 1.8-5.6 0.7-6.9 1.4-5.6 2.8 0.8 0.9 1.3 0.9 5.8 0.4 6.1-0.7 29.6-1.8 29.9-1.4 0.2 0.2-1.3 3-3.3 6.4-2 3.3-5.9 9.7-8.5 14.1-2.6 4.4-8.1 13.6-12.2 20.6-11.1 18.5-18.3 33.2-17 35.2 0.7 1.2 3.5 1.4 4.4 0.3 0.4-0.3 0.6-1.7 0.6-3 0-3.3 4.8-13.1 33.4-60.2 2.1-3.3 4.9-7.8 6.2-9.7 2-3.4 2.4-3.7 4.6-4.1 4.4-0.5 36.2-0.3 37 0.2 1.3 0.9 4.6 0.4 4.8-0.9 0.4-2.3-0.7-2.5-21.8-2.6zm89.2 27c-2.8 0.9-5 1.3-7.6 1.3-4.5 0-5.4-1.1-6.9-3.2-2.2-3.5-3.1-3.4-10 1.8-5.5 4.2-5.7 4.2-4.2 2.1 1.3-2.1 1.3-2.3 0.3-3-1.6-1.4-2.9-0.4-7 6-4.8 7.4-6.8 12.2-5.7 13.3 0.3 0.3 1.1 0.7 1.6 0.7 0.6 0 3.6-2.7 6.7-6 6.3-6.6 13.3-13.1 14.3-13.1 0.3 0 1.3 0.7 2.2 1.6 2.2 2.1 5 3.5 10.3 3.2 3.4-0.2 7.3-1.1 9.7-2.2 1.4-0.7 2.4-1.4 2.4-1.9 0-1.6-1.9-1.6-6-0.2zm55.9 1.1c-1.4 0.9-3.3 2.3-5.7 4-8.5 6.6-13.7 9.2-18 9.6-2.2 0.2-2.7 0-3.5-0.9-1.1-1.6-0.3-4.8 2.1-9 1.6-2.8 1.8-3.6 1.1-4.3-1.1-1-1.9-0.9-3.9 0.7l-1.9 1.5-0.9-1.8c-1.1-2.1-3.1-3.2-5.7-3.2-2.1 0-4.5 0.7-7.1 2.1-9 5-15.3 15.8-10.7 18.4 3.3 2 9.4-0.1 18-6.3l4.4-3.2v3c0 2.6 0.2 3.2 2.2 4.8 3.7 2.8 8.4 2.3 16.5-2.2 4.4-2.4 11.5-7.6 15.2-11.1 1.3-1.2 2-2.1 2-2.5 0-1.9-0.9-2.1-4.4 0.2zm-38 7.4c-2.4 1.8-6.1 4.1-8.1 5.3-4.8 2.7-5.9 2.9-5.4 0.6 1.3-5.2 11.5-13.5 15.6-13.3 0.3 0 0.7 0.2 0.9 0.3 0.4 0.2 0.9 1.3 1.3 2.3 0.5 1.8 0.4 2-3.9 5zm81.8-35.6c-10.9-0.2-19.8-0.3-19.8-0.5 0-0.2 1.3-2.5 2.9-5.1 3.2-5 3.4-7 0.8-6.6-0.9 0.2-2.4 1.9-5.4 6.2l-4 6h-3.7c-6 0-23.6 1.1-29.3 1.8-5.5 0.7-6.8 1.4-5.5 2.8 0.7 0.9 1.3 0.9 5.7 0.4 6.1-0.7 29.6-1.8 30-1.4 0.2 0.1-1.3 3-3.4 6.3-2 3.4-5.9 9.8-8.5 14.2-2.6 4.4-8.1 13.6-12.2 20.5-11.1 18.6-18.3 33.3-17 35.3 0.7 1.2 3.5 1.4 4.4 0.3 0.4-0.3 0.6-1.8 0.6-3 0-3.4 4.8-13.1 33.5-60.2 2-3.4 4.8-7.8 6.1-9.7 2-3.4 2.4-3.7 4.6-4.1 4.5-0.5 36.3-0.4 37 0.2 1.3 0.9 4.7 0.3 4.8-0.9 0.4-2.3-0.7-2.5-21.8-2.7zm33.7 27.1c-0.6-1-1.7-0.7-3.5 0.4-1.7 0.9-12.2 8.1-16.9 10.4-3.9 2-5.3 2.5-7.2 2.3-1.8-0.2-2.4-0.2-2.6-2.8l-0.2-3.7c-0.3-5.5-0.5-6.4-1.6-7.1-0.8-0.4-1.9-0.7-2.6-0.7-2.4 0-9.6 3.7-15.6 8.1-3.1 2.3-5.9 4.1-6.1 3.9-0.3-0.3 5.6-10.6 10-17.1 5.6-8.4 12.8-18.3 19.5-26.6 3.1-3.9 4.9-6.6 4.9-6.9 0.4-1.6-0.7-2-2.4-1.4-4.4 1.2-29.6 35.9-36.2 49.9-3 6.4-3.4 8-2.2 9 0.3 0.4 1.2 0.7 1.8 0.7 0.6 0 4.6-2.6 9.1-6 7.2-5.3 14.8-9.9 16.3-9.9 0.3 0 0.5 2.1 0.5 4.6 0 2.5 0.4 5.3 0.7 6.2 1.3 2.8 6.7 3.9 11.7 2.3 4.8-1.6 15.7-8.7 20.5-12.9 1.5-1.4 2.5-2.5 2.3-2.9zm29 2.9c-12.6 9.4-20.9 13.4-27.4 13.4-4.6 0-7-1.4-7.2-4.2-0.2-1.1 0-2.5 0.4-3.2 0.5-1.1 0.9-0.5 4.6-0.7 2.2-0.2 4.5-0.5 6.5-2.3 3.7-3 3.9-6.2 0.7-7.6-0.7-0.4-1.5-0.6-2.2-0.6-5.7 0-13.7 6.8-14.4 13-0.6 4.4 2.8 7.6 9 8.6 8.2 1.3 17.6-2.6 31.3-12.9 4.3-3.2 6.1-5.3 6.1-5.8 0.2-1.1-0.5-2.5-7.2 2.5zm-29.6 0.1c1.8-1.4 4.1-2.4 5-2.4 0.2 0 0.4 0 0.4 0 0.7 0.5-0.8 2.4-2.6 3.3-2.4 1.1-2.4 1.1-3.5 0.6-0.6-0.4-0.4-0.9 0.9-2zm64.9-3c-2.7 0.9-5 1.2-7.6 1.2-4.4 0-5.3-1-6.8-3.2-2.2-3.5-3.1-3.3-10 1.8-5.5 4.3-5.7 4.3-4.2 2.1 1.2-2.1 1.2-2.3 0.3-3-1.6-1.4-2.9-0.3-7 6.1-4.8 7.4-6.9 12.2-5.7 13.2 0.3 0.4 1.1 0.7 1.6 0.7 0.6 0 3.5-2.6 6.7-6 6.3-6.5 13.3-13.1 14.2-13.1 0.4 0 1.3 0.7 2.3 1.6 2.2 2.1 4.9 3.6 10.3 3.2 3.3-0.2 7.2-1.1 9.6-2.1 1.5-0.7 2.4-1.4 2.4-2 0-1.6-1.8-1.6-5.9-0.2zm-1430.2 106.1c-1.5 0.9-3.4 2.3-5.8 4.1-8.5 6.5-13.7 9.2-17.9 9.5-2.3 0.2-2.8 0-3.5-0.8-1.2-1.6-0.4-4.8 2-9.1 1.7-2.8 1.8-3.5 1.1-4.2-1.1-1.1-1.9-0.9-3.9 0.7l-1.8 1.4-1-1.8c-1.1-2.1-3.1-3.2-5.7-3.2-2 0-4.4 0.8-7 2.2-9.1 4.9-15.4 15.7-10.8 18.4 3.4 1.9 9.5-0.2 18-6.4l4.4-3.2v3c0 2.7 0.2 3.2 2.2 4.8 3.7 2.8 8.4 2.3 16.5-2.1 4.5-2.5 11.5-7.6 15.2-11.2 1.3-1.2 2-2.1 2-2.4 0-2-0.9-2.2-4.4 0.1zm-38 7.5c-2.4 1.7-6.1 4-8.1 5.3-4.8 2.6-5.9 2.8-5.4 0.5 1.3-5.1 11.5-13.4 15.6-13.3 0.4 0 0.7 0.2 0.9 0.4 0.4 0.2 0.9 1.2 1.3 2.3 0.6 1.8 0.4 1.9-3.9 4.9zm152.5-35.5c-10.9-0.2-19.8-0.4-19.8-0.6 0-0.1 1.3-2.4 3-5.1 3.1-5 3.3-6.9 0.7-6.6-0.9 0.2-2.4 2-5.4 6.2l-4 6.1h-3.7c-6 0-23.5 1-29.3 1.7-5.5 0.7-6.8 1.4-5.5 2.9 0.7 0.9 1.3 0.9 5.7 0.3 6.1-0.7 29.6-1.8 30-1.4 0.2 0.2-1.3 3-3.3 6.4-2.1 3.3-6 9.7-8.6 14.1-2.5 4.5-8.1 13.7-12.2 20.6-11.1 18.6-18.3 33.3-17 35.2 0.7 1.2 3.5 1.4 4.4 0.4 0.4-0.4 0.6-1.8 0.6-3 0-3.4 4.8-13.2 33.5-60.2 2-3.4 4.8-7.8 6.1-9.8 2-3.3 2.4-3.7 4.6-4.1 4.5-0.5 36.3-0.3 37 0.2 1.3 0.9 4.7 0.4 4.9-0.9 0.3-2.3-0.8-2.4-21.9-2.6zm-22.9 39.3c-0.4 4.4 2.4 7.4 6.6 7.4 2.8 0 6.9-2.1 9.7-4.9 1.8-2 5.1-7.1 5.1-8.2 0-0.2 2.6-0.7 5.8-1 3.1-0.4 7.7-1.1 10.3-1.6 2.6-0.6 4.8-0.9 5-0.9 0.2 0-0.7 1.8-2 3.9-1.9 3-2.4 4.6-2.6 7.2-0.2 3.6 1.7 6.2 5.6 6.2 2.4 0 8.1-2.4 10.7-4.7 2.8-2.5 6.3-8 6.3-10 0-1.2 0.7-1.6 5.3-1.7 6-0.4 18.6-2 19.5-2.5 1.1-0.7 0.2-2.1-1.5-2.3-0.9 0-4.3 0.3-7.4 0.7-3.1 0.3-7.8 0.7-10.2 0.9-4.4 0.2-5.2 0.3-7.9-1.3-2.4-1.4-3.4-1.6-6.5-1.6-2.1 0-5.4 0.6-7.4 1.1-4.1 1.1-17.8 3.6-19.8 3.6-1.1 0-1.5-0.4-1.5-1.5 0-0.9-0.7-2.1-1.7-3-1.4-1.2-2.2-1.4-5-1.2-1.8 0-3.5-0.2-3.7-0.4-0.3-0.1-0.7-0.3-1.1-0.3-3.7-0.2-10.3 8.8-10.9 15.4zm19.1-11c0 1.2 0 1.2-3.2 0.5-2.6-0.7-2.8-1.4-0.5-1.9 0.5-0.2 1.1-0.2 1.4-0.2 1.3 0 2.1 0.5 2.1 1.4zm-8.2 1.4c0.8 0.6 2.6 1.3 4.1 1.6 1.5 0.4 2.8 0.9 2.8 1.3 0 1.6-3.3 5.8-6.1 7.9-1.7 1.3-3.7 2.3-4.5 2.3-1.4 0-2.7-1.4-2.7-3 0-1.6 2.4-7.4 3.9-9.3 0.7-0.9 1.1-1.3 1.4-1.3 0.4 0 0.8 0.2 1.3 0.5zm40.9 0.2c1.3 0.6 3 0.9 3.7 0.9 2.1 0 1.9 1.4-0.5 5-2.1 3.1-6.3 6.5-9.3 7.4-2.2 0.7-2.8 0.7-3.1-0.2-1.1-2.1 2.2-9.2 5.7-12.5 0.6-0.6 0.9-0.9 1.3-0.9 0.4 0 0.9 0.1 2 0.5zm72.6-3.7c-0.6 0-5.4 3.7-8.2 5.6-4 2.9-10.5 7.5-12.5 8.7-8.4 5-15.6 6.6-18.4 4.1-1.8-1.6-1.4-7.1 1-13.5 1.8-4.7 2-5.1 4.2-5.8 1.3-0.4 4.3-1.8 6.7-3 21.6-11.9 36.2-31 27.5-36.1-0.9-0.6-1.4-0.7-2-0.7-0.5 0-1.3 0.1-2.8 0.5-8.3 2.5-21.6 15.2-30.3 29-8.5 13.5-11.9 23.6-9.6 28.9 0.9 1.9 2.9 3.9 4.8 4.4 4.6 1.4 11.6-0.2 20.1-4.8 4.5-2.5 13.2-8.8 18-13.1 1.7-1.6 2.8-2.6 2.8-3-0.2-0.5-0.8-1-1.3-1zm-29.1-13.1c6.9-10 19.1-21.6 25.2-24.1 0.9-0.4 1.5-0.6 1.8-0.6 0.4 0 0.6 0.2 0.8 0.8 0.9 2.3-2.8 9.2-7.8 14.3-4.2 4.4-11.6 10.3-17.9 14.2-3.2 1.9-6.1 3.5-6.5 3.5-0.8 0 1.3-3.7 4.4-8.3zm141.4-13.1c-10.9-0.2-19.8-0.4-19.8-0.6 0-0.1 1.3-2.4 3-5.1 3.1-4.9 3.3-6.9 0.7-6.5-0.9 0.1-2.4 1.9-5.4 6.2l-4 6h-3.7c-6 0-23.5 1-29.3 1.7-5.5 0.8-6.8 1.5-5.5 2.9 0.7 0.9 1.3 0.9 5.7 0.3 6.1-0.7 29.6-1.7 30-1.4 0.2 0.2-1.3 3-3.3 6.4-2.1 3.4-6 9.7-8.6 14.2-2.5 4.4-8.1 13.6-12.2 20.5-11.1 18.6-18.3 33.3-17 35.2 0.8 1.3 3.5 1.4 4.5 0.4 0.3-0.4 0.5-1.8 0.5-3 0-3.4 4.8-13.1 33.5-60.2 2-3.4 4.8-7.8 6.1-9.8 2-3.3 2.4-3.7 4.6-4 4.5-0.6 36.3-0.4 37 0.1 1.3 0.9 4.7 0.4 4.9-0.8 0.3-2.3-0.8-2.5-21.9-2.7zm22 26.6c-0.9-1.1-2.7-0.2-7.5 2.6-8.2 4.8-16 6.9-22.1 6.9h-2.9l0.9-2.5c1.7-4 1.3-6.2-1.7-8.8-0.9-0.7-2.4-1.1-3.9-1.1-1.4 0-2.9 0.4-4 1.1-0.9 0.5-2.1 1-2.6 1.2-0.6 0.2-2.2 1.8-3.7 3.6-5.9 6.9-7 13.1-2.8 16.1 2.4 1.6 4.4 1.7 7.8 0.7 2.4-0.7 7.4-4.6 7.9-6 0.4-0.7 1.1-0.9 4.3-0.9 7.6 0 15-1.8 24.6-7.1 5.2-2.8 6.7-4.6 5.9-5.5zm-39.6 14c-0.7 0.9-2.4 2.1-3.7 2.7-2.9 1.4-4.2 1.4-5.2-0.2-0.9-1.6-0.3-3.9 1.7-7.3l1.5-2.5 1.5 2c0.7 1 2.6 2.1 3.9 3l1.6 0.9zm4.3-7.8c-0.4 1.4-0.9 2.8-1.3 3-0.4 0.2-1.5-0.2-2.6-0.9-1.5-1-2-1.8-2-3 0-1.9 2-4.2 3.8-4.4 0.2 0 0.4 0 0.6 0 1.8 0.2 2.4 1.9 1.7 5.3zm160.8-5.7c-0.6-1-1.7-0.7-3.5 0.4-1.7 0.9-12.3 8.1-16.9 10.4-3.9 2-5.3 2.5-7.2 2.3-1.9-0.2-2.4-0.2-2.6-2.8l-0.2-3.7c-0.3-5.5-0.5-6.4-1.6-7.1-0.8-0.4-1.9-0.7-2.6-0.7-2.4 0-9.7 3.7-15.6 8.1-3.1 2.3-5.9 4.1-6.1 3.9-0.4-0.3 5.6-10.6 10-17.1 5.6-8.4 12.8-18.3 19.4-26.6 3.2-3.9 5-6.6 5-6.9 0.4-1.6-0.7-2-2.4-1.4-4.4 1.2-29.6 35.9-36.2 49.9-3 6.4-3.4 8-2.3 9 0.4 0.4 1.3 0.7 1.9 0.7 0.5 0 4.6-2.6 9.1-6 7.2-5.3 14.8-9.9 16.2-9.9 0.4 0 0.6 2.1 0.6 4.6 0 2.5 0.4 5.3 0.7 6.2 1.3 2.8 6.7 3.9 11.7 2.3 4.8-1.6 15.7-8.7 20.5-12.9 1.5-1.4 2.4-2.5 2.3-2.9zm29 2.9c-12.6 9.4-20.9 13.4-27.4 13.4-4.6 0-7-1.4-7.2-4.2-0.2-1.1 0-2.5 0.4-3.2 0.5-1.1 0.9-0.5 4.6-0.7 2.2-0.2 4.4-0.5 6.5-2.3 3.7-3 3.9-6.2 0.7-7.6-0.7-0.4-1.5-0.6-2.2-0.6-5.7 0-13.7 6.8-14.4 13-0.6 4.4 2.7 7.6 9 8.6 8.2 1.3 17.6-2.6 31.3-12.9 4.3-3.2 6.1-5.3 6.1-5.8 0.2-1.1-0.5-2.5-7.2 2.5zm-29.6 0.1c1.8-1.4 4.1-2.4 5-2.4 0.2 0 0.4 0 0.4 0 0.7 0.5-0.8 2.4-2.6 3.3-2.4 1.1-2.4 1.1-3.6 0.6-0.5-0.4-0.3-0.9 1-2zm74.9-3.9c-0.5 0-5.3 3.7-8.1 5.7-4.1 2.8-10.6 7.4-12.6 8.6-8.3 5-15.6 6.6-18.3 4.1-1.9-1.6-1.5-7.1 0.9-13.4 1.8-4.8 2-5.2 4.3-5.9 1.3-0.3 4.2-1.7 6.6-3 21.7-11.8 36.3-31 27.6-36.1-0.9-0.5-1.5-0.7-2-0.7-0.6 0-1.3 0.2-2.8 0.5-8.3 2.5-21.7 15.2-30.4 29.1-8.5 13.4-11.8 23.5-9.6 28.8 0.9 2 3 3.9 4.8 4.4 4.6 1.5 11.7-0.1 20.2-4.7 4.4-2.5 13.1-8.9 17.9-13.1 1.7-1.6 2.8-2.7 2.8-3.1-0.2-0.5-0.7-1-1.3-1zm-29-13.1c6.8-9.9 19-21.6 25.1-24.1 1-0.3 1.5-0.5 1.9-0.5 0.4 0 0.5 0.2 0.7 0.7 0.9 2.3-2.8 9.2-7.7 14.3-4.3 4.5-11.7 10.3-18 14.2-3.1 1.9-6.1 3.5-6.5 3.5-0.7 0 1.3-3.7 4.5-8.3zm76.9 13.1c-0.9-0.3-2 0.2-5.3 2.5-9.3 6.4-14.8 8.3-23.2 10.1l-4.6 1 2.6-3c6.3-7.1 6.3-12.9 0-12.9-5.2 0-13.7 6.6-22.2 17-2 2.7-3.9 4.8-4.1 4.8-0.1 0 0.8-1.6 2.1-3.6 7.6-11.8 11.1-17.8 10.7-18.5-0.2-0.4-0.7-0.6-1.5-0.6-0.2 0-0.3 0-0.5 0-1.3 0.2-3 2.3-9.3 12.1-7.2 11.1-21.1 34.3-23.1 38.6-0.6 1-0.8 2.3-0.6 2.8 0.6 1 2.1 1 3.4 0 0.5-0.4 5.3-6.6 10.7-13.8 11.5-15.4 11.8-15.8 12.9-14.9 1.7 1.4 6.3 0.4 11.3-2.6 1.1-0.8 3.4-1.5 5-1.6 4.7-0.6 12.8-2.5 17.4-4.3 5.6-2.1 12.1-5.5 16.5-8.8 1.7-1.3 2.6-2.2 2.6-2.7 0-0.4-0.6-0.9-1.1-1.2zm-42.6 15c-0.9 0-2.8 0.4-4.2 0.7l-2.8 0.7 0.7-1c3-4.5 12.2-12.3 15.9-13.8 1.7-0.8 2.3-0.9 2.4 0.3 0.8 3.4-8.8 13.3-12 13.3zm163-14.2c-0.5-1-2-0.7-3.3 0.2-1.1 0.7-2.6 1.6-4.1 2.7-16.2 10.6-26.2 14.3-26.2 9.7 0-0.7 0.9-3.5 2-6.2 1.1-2.7 1.9-5.3 1.7-5.7-1-1.9-2.6-1.2-9.3 3.9-7.4 5.7-12.8 9.4-13.7 9.4-0.9 0-0.7-2.8 0.4-5.3 0.5-1.2 2-3.9 3.3-6 2.2-3.6 2.4-3.9 1.5-4.6-1.8-1.4-3.1-0.6-6.3 4.4-3.7 6-5 10.6-3.3 12.6 2.8 3.2 7 2.1 15.2-4.1l5-3.9-0.4 3.5c-0.4 3.2 0.9 6.8 6.3 7 4.6 0.1 13.9-4.1 23.8-10.7 7.3-4.6 8-5.5 7.3-6.7zm26.8 0.4c-2.8 1-8.5 2.8-13.7 4.7-5.2 2-9.8 3.8-10.4 4.1-1.3 0.9-1.6 0.4-2.6-3-0.9-3.4-0.3-5.5 1.7-6.6 1.7-0.8 1.7-1.9-0.2-2.6-0.3-0.2-0.7-0.2-1.1-0.2-1.6 0-3.5 1.4-4.6 3.7-0.9 2-0.9 2.7 0.2 6.8l1.1 4.6-1.5 0.7c-3 1.6-8 4.9-9.2 6.3-1.7 1.8-1.7 4.8 0 5.7 1.8 1.1 5.5 0.9 8.8-0.3 3.7-1.5 6.5-4.8 7.1-8.7l0.3-2.9 10.6-4c5.9-2.1 12.2-4.3 15-5.3 3.9-1.5 5-2.2 5-3 0-1.8-1.5-1.8-6.7 0.1zm-33.1 20.4c-1.1 0.7-2.8 1.2-3.7 1.2-1.5 0-1.7-0.1-1.1-1 0.7-1.1 7.2-5.7 7.9-5.7 1.7 0-0.5 3.5-3.3 5.3zm150.3-19.6c-1.5 0.8-3.4 2.3-5.8 4-8.5 6.6-13.7 9.2-17.9 9.6-2.2 0.2-2.8 0-3.5-0.9-1.2-1.6-0.4-4.8 2-9 1.7-2.9 1.8-3.6 1.1-4.3-1.1-1-1.8-0.9-3.9 0.7l-1.8 1.5-1-1.8c-1.1-2.1-3.1-3.2-5.7-3.2-2 0-4.4 0.7-7 2.1-9.1 5-15.4 15.8-10.8 18.4 3.4 2 9.5-0.1 18-6.3l4.4-3.2v3c0 2.6 0.2 3.2 2.3 4.8 3.7 2.8 8.3 2.3 16.4-2.2 4.5-2.4 11.5-7.6 15.2-11.1 1.3-1.3 2-2.1 2-2.5 0-1.9-0.9-2.1-4.4 0.2zm-37.9 7.4c-2.4 1.8-6.2 4.1-8.2 5.3-4.8 2.7-5.9 2.9-5.4 0.6 1.3-5.2 11.5-13.5 15.6-13.3 0.4 0 0.7 0.2 0.9 0.3 0.4 0.2 0.9 1.3 1.3 2.3 0.6 1.8 0.4 2-3.9 5zm73.1-5.1c-16.3 10.6-26.3 14-33.1 12.5-4.4-0.9-5.2-3.9-2-9 1.8-3.2 6.8-7.3 8.3-6.9 0.4 0.2 0.9 0.9 1.1 1.8 0.6 2.1 1.1 2.8 2.6 2.8 3.1 0 1.7-6-1.9-7.3-5.5-1.9-13.7 4.3-15.9 12.3-1.3 4.4 1.7 8.5 6.5 9.3 0.9 0.2 2 0.4 2.4 0.6 2.6 0.7 10.4-0.9 15.9-3.2 7.1-3 15.8-7.8 21.5-11.9 2.4-1.7 3.9-3.2 3.9-3.7 0-2.1-2.6-1.2-9.1 3zm62.6-3.3c-0.6-1.1-1.7-0.8-3.6 0.3-1.6 0.9-12.2 8.2-16.8 10.5-3.9 1.9-5.4 2.4-7.2 2.3-1.9-0.2-2.4-0.2-2.6-2.9l-0.2-3.7c-0.4-5.5-0.5-6.4-1.7-7.1-0.7-0.3-1.8-0.7-2.6-0.7-2.4 0-9.6 3.7-15.5 8.2-3.1 2.3-5.9 4-6.1 3.9-0.4-0.4 5.6-10.7 10-17.2 5.5-8.3 12.8-18.3 19.4-26.6 3.2-3.9 5-6.5 5-6.9 0.4-1.6-0.7-1.9-2.4-1.4-4.4 1.2-29.6 35.9-36.3 49.9-2.9 6.4-3.3 8-2.2 9.1 0.4 0.3 1.3 0.7 1.9 0.7 0.5 0 4.6-2.7 9-6.1 7.3-5.3 14.8-9.9 16.3-9.9 0.4 0 0.6 2.2 0.6 4.6 0 2.5 0.3 5.3 0.7 6.2 1.3 2.9 6.7 3.9 11.7 2.3 4.8-1.6 15.7-8.6 20.5-12.9 1.5-1.4 2.4-2.5 2.2-2.8zm8.9-11.2c1.9-2.1 1.7-3.5-0.5-3.9-1.3-0.1-4.8 4.3-4.3 5.3 0.8 1.5 3 0.7 4.8-1.4zm15.8 14c-12.1 7.4-22.6 11.9-26.7 11.9-4.4 0-4.1-3 1.1-11 2.8-4.3 3.2-5.1 2.4-5.8-0.5-0.6-1.1-0.9-1.6-0.9-1.3 0-2.8 1.6-5.4 5.3-2.4 3.3-4.5 8.1-4.5 10.4 0 1.4 0.6 2.3 2.1 3.4 1.6 1.2 2.6 1.6 5.2 1.6 3.8 0 6.8-0.9 14.6-4.6 5.5-2.7 12.6-6.6 17.6-9.9 2.2-1.6 3.7-2.7 3.7-3-0.4-1.8-2.8-1.1-8.7 2.6zm38.1 0c-12.6 9.4-20.9 13.5-27.4 13.5-4.6 0-7-1.5-7.2-4.3-0.2-1 0-2.5 0.4-3.2 0.5-1 0.9-0.5 4.6-0.7 2.2-0.2 4.4-0.5 6.5-2.3 3.7-3 3.8-6.2 0.7-7.6-0.7-0.3-1.5-0.5-2.2-0.5-5.8 0-13.7 6.7-14.5 12.9-0.5 4.4 2.8 7.6 9.1 8.7 8.2 1.2 17.6-2.7 31.3-12.9 4.2-3.2 6.1-5.4 6.1-5.9 0.2-1.1-0.6-2.5-7.2 2.5zm-29.6 0.2c1.8-1.5 4-2.5 5-2.5 0.1 0 0.3 0 0.3 0 0.8 0.5-0.7 2.5-2.6 3.4-2.4 1-2.4 1-3.5 0.5-0.5-0.4-0.3-0.9 0.9-2zm77.2-1.7c-6.8 3.7-11.6 4.7-16.1 4.9-6.5 0.4-8.1-1.6-5.2-5.8 1.7-2.3 1.3-3.4-0.9-3.4-1.1 0-2.4 1.3-6.1 5.7-4.6 5.5-11.7 12-12.8 12-1.1 0-0.7-4.9 0.8-10.2 1.5-5.7 1.3-7.3-1-7.1-2 0.1-3.7 5.5-4.2 12.7-0.2 2.7-0.4 4.1-0.2 5 0.4 1.4 1.9 3.3 4.3 3.2 1.8-0.2 6.3-3.2 10.7-7.5l4.4-4.4 1.9 1.2c3.5 2.3 9.4 2.5 16.6 0.4 3.2-0.9 6.9-2.3 10.6-4.4 2.6-1.5 4.4-2.7 4.6-3.2 0.4-2.1-1.6-1.8-6.8 1zm35.9 1.6c-12.6 9.4-20.9 13.5-27.4 13.5-4.6 0-7-1.4-7.2-4.3-0.2-1 0-2.4 0.3-3.1 0.6-1.1 1-0.6 4.7-0.8 2.2-0.1 4.4-0.5 6.4-2.3 3.7-3 3.9-6.2 0.8-7.6-0.8-0.3-1.5-0.5-2.2-0.5-5.8 0-13.7 6.7-14.5 12.9-0.5 4.4 2.8 7.6 9.1 8.7 8.1 1.2 17.6-2.7 31.3-12.9 4.2-3.2 6.1-5.3 6.1-5.9 0.2-1-0.6-2.4-7.2 2.5zm-29.7 0.2c1.9-1.4 4.1-2.5 5-2.5 0.2 0 0.4 0 0.4 0 0.8 0.5-0.7 2.5-2.6 3.4-2.4 1-2.4 1-3.5 0.5-0.5-0.3-0.4-0.9 0.9-1.9zm183.2-3.1c-0.7-1.5-2.6-0.7-8.5 3.6-10.5 7.6-15.5 11-20.7 12.4-2.8 0.7-3.1 0.7-3.9-0.2-0.9-1.1-0.9-0.7 1.5-8.5 1.7-5.7 1.7-6 0.5-7.3-0.9-1.2-1.4-1.4-3.7-1.2-2.9 0.4-5.9 1.8-13.1 6.7l-5.2 3.6 0.6-3c1.1-6.2 0-8.4-4.1-8.4-3.5 0-7.6 2.5-15.7 9.3-2.2 1.7-4.1 3.1-4.3 3.1-0.2 0 0.8-2.1 2.1-4.6 3.3-6.9 3.8-8.5 2.9-9.2-0.4-0.3-1.1-0.5-1.6-0.3-2.3 0.7-9.1 15.2-9.1 19.4 0 2.2 0.2 2.4 1.7 2.5 1.4 0.2 2.4-0.3 5.5-3.3 8.1-7.8 15.7-13.5 18.1-13.5 0.8 0 0.8 0.5 0.4 3.7-0.7 5.2-0.5 6.8 0.7 7.5 1.9 1 4.1 0.1 9.9-3.8 6.2-4.2 10.9-6.9 11.4-6.3 0.2 0.1 0 1.2-0.3 2.5-0.4 1.2-1.3 4-1.9 6.1-1.3 4.5-0.7 6.6 1.9 7.7 5.5 2.1 13.1-0.9 27-10.8 8.5-6.1 8.9-6.4 8.3-7.7zm41.1-0.5c-0.9-1-2.8-0.2-7.6 2.7-8.1 4.8-15.9 6.9-22 6.9h-3l0.9-2.5c1.7-4.1 1.3-6.2-1.6-8.9-0.9-0.7-2.4-1-3.9-1-1.5 0-3 0.3-4.1 1-0.9 0.6-2 1.1-2.6 1.3-0.5 0.2-2.2 1.8-3.7 3.5-5.9 6.9-7 13.1-2.7 16.1 2.4 1.6 4.4 1.8 7.7 0.7 2.4-0.7 7.4-4.6 8-6 0.4-0.7 1.1-0.9 4.2-0.9 7.6 0 15-1.7 24.6-7 5.2-2.9 6.7-4.6 6-5.5zm-39.6 14c-0.8 0.8-2.4 2.1-3.7 2.6-3 1.4-4.3 1.4-5.2-0.2-0.9-1.6-0.4-3.9 1.7-7.2l1.4-2.5 1.5 1.9c0.8 1.1 2.6 2.2 3.9 3.1l1.7 0.8zm4.2-7.7c-0.3 1.4-0.9 2.8-1.3 3-0.3 0.1-1.5-0.2-2.6-0.9-1.4-1.1-2-1.8-2-3 0-2 2-4.3 3.9-4.5 0.2 0 0.4 0 0.5 0 1.9 0.2 2.4 2 1.7 5.4zm63.5-5.7c-2.8 0.9-5 1.2-7.6 1.2-4.4 0-5.4-1-6.9-3.2-2.2-3.5-3.1-3.3-9.9 1.8-5.6 4.3-5.8 4.3-4.3 2.1 1.3-2.1 1.3-2.3 0.4-3-1.7-1.4-3-0.3-7.1 6-4.8 7.5-6.8 12.3-5.7 13.3 0.4 0.4 1.1 0.7 1.7 0.7 0.5 0 3.5-2.6 6.6-6 6.3-6.5 13.3-13.1 14.3-13.1 0.3 0 1.3 0.7 2.2 1.6 2.2 2.1 5 3.5 10.4 3.2 3.3-0.2 7.2-1.1 9.6-2.1 1.5-0.7 2.4-1.5 2.4-2 0-1.6-1.9-1.6-5.9-0.2zm42 2.9c-12.6 9.4-20.9 13.4-27.4 13.4-4.6 0-7-1.4-7.2-4.2-0.2-1.1 0-2.5 0.3-3.2 0.6-1.1 1-0.5 4.7-0.7 2.2-0.2 4.4-0.5 6.4-2.3 3.7-3 3.9-6.2 0.8-7.6-0.8-0.4-1.5-0.6-2.2-0.6-5.8 0-13.7 6.8-14.5 13-0.5 4.4 2.8 7.6 9.1 8.6 8.1 1.3 17.6-2.6 31.3-12.9 4.2-3.2 6.1-5.3 6.1-5.8 0.2-1.1-0.6-2.5-7.2 2.4zm-29.7 0.2c1.9-1.4 4.1-2.5 5-2.5 0.2 0 0.4 0 0.4 0 0.8 0.6-0.7 2.5-2.6 3.4-2.4 1.1-2.4 1.1-3.5 0.5-0.5-0.3-0.4-0.8 0.9-1.9zm37.6 13.6c-1.5 0.6-1.9 2.5-0.6 3.4 1.3 0.9 3.7 0.7 4.5-0.4 1.3-1.9-1.5-4-4.1-3z"/>
</svg>