<svg xmlns="http://www.w3.org/2000/svg" viewBox="0 0 750 500"><g id="freepik--background-complete--inject-13"><path d="M53.8,198.75a22.55,22.55,0,0,1,5.51-2.39l1.13-5.44,9.2-.17L71,196.16a22.48,22.48,0,0,1,5.58,2.19l4.65-3,6.62,6.4-2.88,4.75a22.49,22.49,0,0,1,2.39,5.5l5.44,1.14.17,9.2-5.41,1.32a22.4,22.4,0,0,1-2.19,5.59l3,4.65L82,240.47l-4.75-2.88a22.87,22.87,0,0,1-5.5,2.39l-1.14,5.44-9.2.16-1.32-5.4a22.43,22.43,0,0,1-5.59-2.2L49.84,241l-6.62-6.39,2.88-4.75a22.94,22.94,0,0,1-2.39-5.51l-5.44-1.13-.16-9.2,5.4-1.33a22.87,22.87,0,0,1,2.19-5.58l-3-4.65,6.39-6.62,4.75,2.88ZM58.71,211a9.87,9.87,0,1,0,14-.24A9.87,9.87,0,0,0,58.71,211Z" style="fill:#ebebeb"></path><path d="M67.35,65.58a22.55,22.55,0,0,1,5.51-2.39L74,57.74l9.2-.16L84.52,63a22.9,22.9,0,0,1,5.58,2.2l4.65-3.05,6.62,6.4-2.88,4.75a22.49,22.49,0,0,1,2.39,5.5l5.45,1.14.16,9.2-5.41,1.32A22.18,22.18,0,0,1,98.89,96l3,4.66-6.4,6.62-4.75-2.89a22.11,22.11,0,0,1-5.5,2.39l-1.14,5.45-9.2.16L73.63,107a22.82,22.82,0,0,1-5.59-2.2l-4.65,3-6.62-6.39,2.89-4.76a22.52,22.52,0,0,1-2.4-5.5l-5.44-1.13-.16-9.2,5.4-1.33A22.36,22.36,0,0,1,59.26,74l-3-4.65L62.6,62.7l4.75,2.88Zm4.91,12.26a9.87,9.87,0,1,0,14-.25A9.86,9.86,0,0,0,72.26,77.84Z" style="fill:#ebebeb"></path><path d="M268.14,117.23a27.08,27.08,0,0,1,6.64-2.89l1.37-6.58,11.11-.19,1.6,6.52a27.16,27.16,0,0,1,6.74,2.65l5.62-3.68,8,7.72-3.48,5.74a27.47,27.47,0,0,1,2.89,6.64l6.57,1.37.2,11.11-6.53,1.6a26.78,26.78,0,0,1-2.65,6.74l3.68,5.62-7.71,8-5.74-3.48a27.54,27.54,0,0,1-6.65,2.89l-1.37,6.57-11.11.2-1.6-6.53a27.08,27.08,0,0,1-6.74-2.65l-5.61,3.68-8-7.72,3.48-5.74a26.92,26.92,0,0,1-2.89-6.64l-6.58-1.37-.19-11.11,6.52-1.6a27.87,27.87,0,0,1,2.65-6.74l-3.68-5.61,7.72-8,5.74,3.49ZM274.06,132a11.92,11.92,0,1,0,16.86-.29A11.93,11.93,0,0,0,274.06,132Z" style="fill:#ebebeb"></path><path d="M116.84,45a10.93,10.93,0,0,1,2.79-1.21L120.2,41l4.65-.08.67,2.73a11.49,11.49,0,0,1,2.82,1.11l2.35-1.54L134,46.48l-1.46,2.41a11.22,11.22,0,0,1,1.21,2.78l2.75.57.08,4.65-2.73.67a11.19,11.19,0,0,1-1.11,2.82l1.54,2.36-3.23,3.34-2.4-1.46a11,11,0,0,1-2.78,1.21l-.57,2.76-4.66.08L120,65.94a11.49,11.49,0,0,1-2.82-1.11l-2.35,1.54-3.35-3.23L113,60.73A11.61,11.61,0,0,1,111.74,58L109,57.38l-.08-4.65,2.73-.67a11.19,11.19,0,0,1,1.11-2.82l-1.54-2.36,3.23-3.34,2.4,1.46Zm2.48,6.19a5,5,0,1,0,7.06-.12A5,5,0,0,0,119.32,51.19Z" style="fill:#ebebeb"></path><path d="M608.72,78.2A1.74,1.74,0,1,1,607,76.46,1.74,1.74,0,0,1,608.72,78.2Z" style="fill:#e0e0e0;fill-rule:evenodd"></path><path d="M653.73,49.39A1.74,1.74,0,1,1,652,47.66,1.73,1.73,0,0,1,653.73,49.39Z" style="fill:#e0e0e0;fill-rule:evenodd"></path><path d="M600.07,401s0-.48,0-1.41,0-2.32,0-4.13c0-3.64,0-9,0-15.9,0-13.84,0-33.88-.08-58.72,0-49.71,0-118.65-.08-195.62v-.06l0-.06c2.25-4.47,4.68-9.28,7.11-14.12l0,.12V78.2l.26.25-228.27-.14.11-.11c0,10.56,0,18.67,0,24.14q0,4.09,0,6.2c0,1.39,0,2.1,0,2.1s0-.71,0-2.1,0-3.47,0-6.2c0-5.47,0-13.58-.06-24.14v-.12h.12l228.27-.14h.25v.26c0,10.36,0,21,0,31.88v1l0,.06L600.3,125.3l0-.12c0,77-.06,145.91-.08,195.62,0,24.84-.06,44.88-.08,58.72,0,6.91,0,12.26,0,15.9,0,1.81,0,3.2,0,4.13S600.07,401,600.07,401Z" style="fill:#e0e0e0"></path><path d="M644.9,203.26s0-.51,0-1.5-.05-2.46-.09-4.38c-.07-3.85-.17-9.5-.3-16.75-.23-14.51-.56-35.39-1-60.91v0l0,0q3.81-10.16,8-21.32l0,.08c0-14.93,0-31.46,0-48.93l.25.25h-64l-106,0h-.14l-.07-.13-6.29-13.31.2.12-71.6-.09-20-.06-5.25,0-1.8,0s.61,0,1.8,0l5.25,0,20-.06,71.6-.09h.13l.06.12L482,49.39l-.21-.13,106,0H652v.25c0,17.47,0,34,0,48.93v0l0,0-8,21.3v-.08c.33,25.53.6,46.41.79,60.92.08,7.25.15,12.9.19,16.75q0,2.88,0,4.38C644.92,202.75,644.9,203.26,644.9,203.26Z" style="fill:#e0e0e0"></path><path d="M632.43,214.44s0-.56-.07-1.66-.07-2.73-.13-4.85c-.1-4.28-.25-10.56-.45-18.62-.37-16.15-.9-39.43-1.55-68v0l0,0,9.4-22v.08c.29-12,.61-25,.94-38.69l.24.24-110.75,0-179.81-.07.14-.05L335.78,75.31l0,0h-.07L287,74.94l-13-.14-3.36,0-1.13,0,1.13,0H274l13,0,48.63.27-.12,0q6.82-6.84,14.59-14.62l.05-.06h.08l179.81-.07,110.75,0h.24v.25c-.34,13.64-.68,26.65-1,38.69v0l0,0c-3.29,7.68-6.45,15-9.44,22l0-.08c.58,28.58,1,51.87,1.37,68,.15,8.06.27,14.34.35,18.62,0,2.12.06,3.75.07,4.85S632.43,214.44,632.43,214.44Z" style="fill:#e0e0e0"></path><path d="M272.51,74.55a1.74,1.74,0,1,1-1.74-1.74A1.73,1.73,0,0,1,272.51,74.55Z" style="fill:#e0e0e0;fill-rule:evenodd"></path><path d="M376.84,36.18a1.74,1.74,0,1,1-1.74-1.74A1.74,1.74,0,0,1,376.84,36.18Z" style="fill:#e0e0e0;fill-rule:evenodd"></path><path d="M665.64,397.7H629.29c10.64-36.18,13.06-104,11.28-148.93h13.37C653.24,293.54,656.47,361,665.64,397.7Z" style="fill:#ebebeb"></path><path d="M715.61,441.7a28.94,28.94,0,0,0-24.89-9.4c.87-8,1.67-16.51-1.49-23.84s-11.83-12.57-18.43-8.68c2.44-11.09-1.84-23.54-10.42-30.28a26.41,26.41,0,0,0-30.08-1.56c-9.15,5.83-14.53,17.78-13.09,29.07a26.69,26.69,0,0,0-23.91,11.85,31.09,31.09,0,0,0-2.92,28.06c-13.61-.73-26.59,17.08-26.32,31.67l159.37-.19A33.12,33.12,0,0,0,715.61,441.7Z" style="fill:#ebebeb"></path><path d="M635.39,182.1l30.68,10.58c6.77,6.95,2.22,16.76-3.5,20.53a10.93,10.93,0,0,1-2.9,20.62,9.78,9.78,0,1,1-17.26,8.95c-1.29-3.39-.68-7.39-2.5-10.52-1.72-2.93-5.11-4.34-7.88-6.32-6.86-4.9-10-14-9-22.37S629,187.63,635.39,182.1Z" style="fill:#ebebeb"></path><path d="M654.87,189.05a24.53,24.53,0,0,1,1.66,9.51,2.2,2.2,0,0,1-4,1.19l0,0a90.91,90.91,0,0,1-.39,11.9,2.71,2.71,0,0,1-4.94,1.28,41.56,41.56,0,0,1-7-28.37Z" style="fill:#e0e0e0"></path><path d="M624.44,152.06l-.17.13A40.86,40.86,0,0,0,609,184.08v7.77l15.43-10.73Z" style="fill:#e0e0e0"></path><path d="M668.52,152l.17.13a40.3,40.3,0,0,1,15.07,31.44v7.67l-15.24-10.57Z" style="fill:#e0e0e0"></path><path d="M646.45,75.94c3.49,0,9.91,9,15.87,24.09a89.6,89.6,0,0,1,6.19,27.79l0,64.86H624.46l0-58.86A90.46,90.46,0,0,1,626,116.7,108.76,108.76,0,0,1,630.59,100C636.18,84.9,643,76,646.45,75.94" style="fill:#f5f5f5"></path><line x1="668.54" y1="182.4" x2="624.9" y2="182.16" style="fill:#f5f5f5"></line><path d="M624.9,182.16c0,.07,9.77.17,21.82.24s21.82.06,21.82,0-9.77-.17-21.82-.23S624.9,182.1,624.9,182.16Z" style="fill:#e0e0e0"></path><line x1="668.73" y1="184.37" x2="625.09" y2="184.13" style="fill:#f5f5f5"></line><path d="M625.09,184.13c0,.06,9.77.17,21.82.23s21.82.07,21.82,0-9.76-.17-21.82-.24S625.09,184.07,625.09,184.13Z" style="fill:#e0e0e0"></path><line x1="668.7" y1="186.44" x2="625.06" y2="186.2" style="fill:#f5f5f5"></line><path d="M625.06,186.2c0,.07,9.77.17,21.82.24s21.82.06,21.82,0-9.77-.17-21.82-.23S625.06,186.14,625.06,186.2Z" style="fill:#e0e0e0"></path><line x1="668.67" y1="188.51" x2="625.03" y2="188.28" style="fill:#f5f5f5"></line><path d="M625,188.28c0,.06,9.77.17,21.81.23s21.83.07,21.83,0-9.77-.16-21.82-.23S625,188.21,625,188.28Z" style="fill:#e0e0e0"></path><line x1="668.63" y1="190.59" x2="624.99" y2="190.35" style="fill:#f5f5f5"></line><path d="M625,190.35c0,.07,9.77.17,21.82.24s21.82.06,21.82,0-9.76-.17-21.82-.24S625,190.29,625,190.35Z" style="fill:#e0e0e0"></path><path d="M646.39,152.1a2.8,2.8,0,0,0,0,.3,7.88,7.88,0,0,0-.06.88c0,.76,0,1.87,0,3.23,0,2.73,0,6.5,0,10.66s.11,7.94.17,10.66c0,1.35.06,2.45.08,3.24q0,.54,0,.87a1.3,1.3,0,0,0,0,.31,1.92,1.92,0,0,0,0-.31c0-.22,0-.51,0-.88,0-.79,0-1.88,0-3.23,0-2.75-.06-6.51-.09-10.66s-.08-7.91-.11-10.66c0-1.34,0-2.44,0-3.23,0-.38,0-.68,0-.88A1.17,1.17,0,0,0,646.39,152.1Z" style="fill:#e0e0e0"></path><path d="M624.44,152.06c0,.06,9.78.12,21.85.12s21.86-.05,21.86-.11-9.79-.12-21.86-.12S624.44,152,624.44,152.06Z" style="fill:#e0e0e0"></path><path d="M642.87,173.49s-.07-.1-.27-.2a1.35,1.35,0,0,0-.9-.06,1.32,1.32,0,0,0-1,.92,1.42,1.42,0,0,0,2.11,1.64,1.32,1.32,0,0,0,.66-1.17,1.43,1.43,0,0,0-.29-.86c-.13-.17-.24-.22-.25-.21s.07.09.18.26a1.47,1.47,0,0,1,.19.81,1.17,1.17,0,0,1-.59,1,1.22,1.22,0,0,1-1.8-1.41,1.16,1.16,0,0,1,.81-.81,1.37,1.37,0,0,1,.83,0C642.76,173.44,642.86,173.5,642.87,173.49Z" style="fill:#e0e0e0"></path><path d="M642.63,161s-.07-.1-.27-.19a1.41,1.41,0,0,0-.9-.07,1.33,1.33,0,0,0-1,.92,1.49,1.49,0,0,0,.47,1.57,1.51,1.51,0,0,0,1.63.08,1.39,1.39,0,0,0,.37-2c-.13-.17-.24-.23-.25-.22s.08.1.18.27a1.43,1.43,0,0,1,.19.8,1.14,1.14,0,0,1-.59,1,1.22,1.22,0,0,1-1.8-1.4,1.17,1.17,0,0,1,.81-.82,1.55,1.55,0,0,1,.83,0C642.52,160.9,642.62,161,642.63,161Z" style="fill:#e0e0e0"></path><path d="M645.27,219.18a2.33,2.33,0,1,1-.15-.09" style="fill:#e0e0e0"></path><path d="M636.47,113.42a11.9,11.9,0,1,0,16.5-3.33A11.9,11.9,0,0,0,636.47,113.42Z" style="fill:#fff"></path><path d="M636.47,113.42a25.22,25.22,0,0,1,2-2.14,11.94,11.94,0,0,1,7.18-3,11.68,11.68,0,0,1,10.12,4.76,11.6,11.6,0,0,1,2.26,6.38,11.64,11.64,0,0,1-7.62,11.47,11.09,11.09,0,0,1-3.42.7,10.9,10.9,0,0,1-3.34-.3,11.69,11.69,0,0,1-5.39-3,11.53,11.53,0,0,1-2.92-4.53,11.84,11.84,0,0,1-.05-7.76,21.83,21.83,0,0,1,1.2-2.66,4.13,4.13,0,0,0-.43.63,5.52,5.52,0,0,0-.46.8,8.06,8.06,0,0,0-.5,1.16,12,12,0,0,0,2.86,12.67,12.14,12.14,0,0,0,5.58,3.11,12,12,0,0,0,7-.39,12.06,12.06,0,0,0,8-12,12.24,12.24,0,0,0-2.37-6.64,12.22,12.22,0,0,0-5-3.94,12,12,0,0,0-12.78,2.28,8,8,0,0,0-.87.92,5.7,5.7,0,0,0-.57.73A3.22,3.22,0,0,0,636.47,113.42Z" style="fill:#e0e0e0"></path><path d="M646.45,75.94c3.49,0,9.91,9,15.87,24.09H630.59C636.18,84.9,643,76,646.45,75.94" style="fill:#e0e0e0"></path><path d="M646.45,75.94l-.62.07a5.55,5.55,0,0,0-1.63.79,21.12,21.12,0,0,0-4.73,5.13c-3.5,5-7.56,13-10.85,23.5a107.65,107.65,0,0,0-3.78,17.71,91.55,91.55,0,0,0-.62,10.13c0,3.49,0,7.09,0,10.79,0,14.8,0,31.21,0,48.64V193h44.6v-.25c0-17.44,0-33.85-.06-48.65,0-3.7,0-7.3,0-10.79,0-1.75,0-3.47,0-5.16s-.21-3.36-.4-5a95.41,95.41,0,0,0-3.89-17.68,114.7,114.7,0,0,0-5.6-13.73A74.39,74.39,0,0,0,653.34,82a21.94,21.94,0,0,0-4.65-5.2c-.35-.2-.63-.41-.91-.53a5.75,5.75,0,0,0-.72-.27l-.61-.07s.2,0,.6.12a5.94,5.94,0,0,1,.7.28,8,8,0,0,1,.88.55,22.25,22.25,0,0,1,4.56,5.23,75,75,0,0,1,5.4,9.68,116.68,116.68,0,0,1,5.52,13.73,95.8,95.8,0,0,1,3.81,17.61c.19,1.62.35,3.28.38,5v5.15q0,5.23,0,10.79c0,14.81,0,31.21,0,48.65l.26-.26H624.46l.25.26c0-17.43,0-33.84-.05-48.64,0-3.7,0-7.3,0-10.79a91.24,91.24,0,0,1,.59-10.09,107.37,107.37,0,0,1,3.7-17.65C632.18,95,636.19,87,639.62,82a21.89,21.89,0,0,1,4.63-5.17,5.76,5.76,0,0,1,1.59-.81Z" style="fill:#e0e0e0"></path><path d="M639.88,126.08a9.84,9.84,0,0,0,1.8-1.59c1.05-1,2.45-2.54,4-4.21l3.84-4.31a12.32,12.32,0,0,0,1.53-1.84,9.91,9.91,0,0,0-1.79,1.59c-1.06,1-2.46,2.53-4,4.21l-3.84,4.31A12.52,12.52,0,0,0,639.88,126.08Z" style="fill:#e0e0e0"></path><path d="M643.38,126.1a27.27,27.27,0,0,0,3.83-3.6,26.26,26.26,0,0,0,3.45-4,27.46,27.46,0,0,0-3.83,3.6A26.54,26.54,0,0,0,643.38,126.1Z" style="fill:#e0e0e0"></path></g><g id="freepik--Floor--inject-13"><path d="M711.52,468.8c0,.15-152.47.27-340.5.27S30.48,469,30.48,468.8s152.44-.26,340.54-.26S711.52,468.66,711.52,468.8Z" style="fill:#263238"></path></g><g id="freepik--OK--inject-13"><rect x="626.22" y="237.37" width="56.33" height="56.33" rx="9.87" style="fill:#263238"></rect><rect x="617.96" y="237.37" width="56.33" height="56.33" rx="9.87" style="fill:#455a64"></rect><polygon points="628.89 265.2 634.25 259.84 644.58 269.03 661.84 251.7 666.82 257.06 643.82 279.36 628.89 265.2" style="fill:#fff"></polygon></g><g id="freepik--Plant--inject-13"><path d="M646.56,407.79a11.29,11.29,0,0,1,5.83,6.6,19.88,19.88,0,0,1,.77,8.94c-.66,5.8-3.95,11.66-7.5,16.3-4.89-4.27-6-11.7-6.35-15.51-.52-6,2.18-17.22,7.25-16.33" style="fill:#A3A0A0"></path><path d="M651.33,449.2a9.62,9.62,0,0,1,3.1-9.12,12.75,12.75,0,0,1,9.4-2.93A5.36,5.36,0,0,1,668,439a4.1,4.1,0,0,1,.06,4.16,8.34,8.34,0,0,1-3.07,3c-4.24,2.65-8.82,4.45-13.61,3" style="fill:#A3A0A0"></path><path d="M645.07,467a7.12,7.12,0,0,1,.17-1.19c.16-.84.36-1.92.59-3.22a33.78,33.78,0,0,1,3.33-10.3,20.49,20.49,0,0,1,7.39-7.84,13.94,13.94,0,0,1,3-1.34c.37-.12.67-.17.86-.22a1,1,0,0,1,.31,0,22.13,22.13,0,0,0-4,1.85,21.31,21.31,0,0,0-7.17,7.8,36.19,36.19,0,0,0-3.4,10.15c-.3,1.35-.54,2.44-.72,3.19A6.59,6.59,0,0,1,645.07,467Z" style="fill:#263238"></path><path d="M645.25,416.51a1.65,1.65,0,0,1,.06.52c0,.38.06.88.09,1.49.07,1.3.15,3.18.22,5.5.15,4.65.27,11.08.24,18.17s-.2,13.53-.39,18.17c-.1,2.33-.19,4.21-.27,5.5,0,.62-.08,1.11-.1,1.5a2,2,0,0,1-.07.52,3,3,0,0,1,0-.52c0-.39,0-.89,0-1.5,0-1.35.08-3.22.14-5.51.11-4.64.24-11.06.27-18.16s0-13.51-.12-18.16c0-2.28-.06-4.15-.08-5.5,0-.62,0-1.11,0-1.5A3,3,0,0,1,645.25,416.51Z" style="fill:#263238"></path><path d="M642.88,452.73a22.42,22.42,0,0,0-12.25-16.43c-1.63-.78-3.76-1.3-5.1-.08s-1,3.4-.39,5.09a19.17,19.17,0,0,0,17.63,11.9" style="fill:#A3A0A0"></path><path d="M631.42,441.8a5.72,5.72,0,0,1,1,.45,10.93,10.93,0,0,1,1.17.63,17.26,17.26,0,0,1,1.49.93,19.18,19.18,0,0,1,1.71,1.29,20.65,20.65,0,0,1,1.81,1.64,24.88,24.88,0,0,1,3.45,4.44,24.64,24.64,0,0,1,2.28,5.14,22,22,0,0,1,.57,2.38,16,16,0,0,1,.29,2.12c.09.65.06,1.24.09,1.76a10.53,10.53,0,0,1,0,1.32,6.2,6.2,0,0,1-.13,1.13c-.1,0,.07-1.62-.21-4.18-.09-.64-.17-1.34-.34-2.08a22,22,0,0,0-.61-2.34,25.07,25.07,0,0,0-2.26-5,25.53,25.53,0,0,0-3.37-4.38,22.24,22.24,0,0,0-1.76-1.66,19,19,0,0,0-1.65-1.3C632.85,442.55,631.38,441.88,631.42,441.8Z" style="fill:#263238"></path></g><g id="freepik--Server--inject-13"><rect x="96.16" y="218.17" width="104.54" height="250.7" style="fill:#e0e0e0"></rect><rect x="65.78" y="218.17" width="82.65" height="250.7" style="fill:#f5f5f5"></rect><path d="M148.55,468.68c-.14,0-.26-56.14-.26-125.39s.12-125.4.26-125.4.26,56.14.26,125.4S148.7,468.68,148.55,468.68Z" style="fill:#263238"></path><rect x="163.51" y="246.97" width="25.04" height="2.58" style="fill:#263238"></rect><rect x="163.51" y="254.35" width="25.04" height="2.58" style="fill:#263238"></rect><rect x="163.51" y="261.74" width="25.04" height="2.58" style="fill:#263238"></rect><rect x="74.32" y="228.83" width="66.12" height="232.08" style="fill:#e0e0e0"></rect><rect x="79.07" y="237.38" width="54.78" height="8.3" style="fill:#ebebeb"></rect><rect x="79.07" y="237.38" width="8.3" height="8.3" style="fill:#A3A0A0"></rect><rect x="117.51" y="237.38" width="18.04" height="8.3" style="fill:#f5f5f5"></rect><rect x="79.07" y="252.15" width="54.78" height="8.3" style="fill:#ebebeb"></rect><rect x="79.07" y="252.15" width="8.3" height="8.3" style="fill:#fff"></rect><rect x="117.51" y="252.15" width="18.04" height="8.3" style="fill:#f5f5f5"></rect><rect x="79.07" y="266.93" width="54.78" height="8.3" style="fill:#ebebeb"></rect><rect x="79.07" y="266.93" width="8.3" height="8.3" style="fill:#A3A0A0"></rect><rect x="117.51" y="266.93" width="18.04" height="8.3" style="fill:#f5f5f5"></rect><rect x="79.07" y="281.71" width="54.78" height="8.3" style="fill:#ebebeb"></rect><rect x="79.07" y="281.71" width="8.3" height="8.3" style="fill:#fff"></rect><rect x="117.51" y="281.71" width="18.04" height="8.3" style="fill:#f5f5f5"></rect><rect x="79.07" y="296.48" width="54.78" height="8.3" style="fill:#ebebeb"></rect><rect x="79.07" y="296.48" width="8.3" height="8.3" style="fill:#A3A0A0"></rect><rect x="117.51" y="296.48" width="18.04" height="8.3" style="fill:#f5f5f5"></rect><rect x="79.07" y="311.26" width="54.78" height="8.3" style="fill:#ebebeb"></rect><rect x="79.07" y="311.26" width="8.3" height="8.3" style="fill:#A3A0A0"></rect><rect x="117.51" y="311.26" width="18.04" height="8.3" style="fill:#f5f5f5"></rect><rect x="79.07" y="326.04" width="54.78" height="8.3" style="fill:#ebebeb"></rect><rect x="79.07" y="326.04" width="8.3" height="8.3" style="fill:#fff"></rect><rect x="117.51" y="326.04" width="18.04" height="8.3" style="fill:#f5f5f5"></rect><rect x="79.07" y="340.81" width="54.78" height="8.3" style="fill:#ebebeb"></rect><rect x="79.07" y="340.81" width="8.3" height="8.3" style="fill:#fff"></rect><rect x="117.51" y="340.81" width="18.04" height="8.3" style="fill:#f5f5f5"></rect><rect x="79.07" y="355.59" width="54.78" height="8.3" style="fill:#ebebeb"></rect><rect x="79.07" y="355.59" width="8.3" height="8.3" style="fill:#fff"></rect><rect x="117.51" y="355.59" width="18.04" height="8.3" style="fill:#f5f5f5"></rect><rect x="79.07" y="370.37" width="54.78" height="8.3" style="fill:#ebebeb"></rect><rect x="79.07" y="370.37" width="8.3" height="8.3" style="fill:#A3A0A0"></rect><rect x="117.51" y="370.37" width="18.04" height="8.3" style="fill:#f5f5f5"></rect><rect x="79.07" y="385.15" width="54.78" height="8.3" style="fill:#ebebeb"></rect><rect x="79.07" y="385.15" width="8.3" height="8.3" style="fill:#fff"></rect><rect x="117.51" y="385.15" width="18.04" height="8.3" style="fill:#f5f5f5"></rect><rect x="79.07" y="399.92" width="54.78" height="8.3" style="fill:#ebebeb"></rect><rect x="79.07" y="399.92" width="8.3" height="8.3" style="fill:#A3A0A0"></rect><rect x="117.51" y="399.92" width="18.04" height="8.3" style="fill:#f5f5f5"></rect><rect x="79.07" y="414.7" width="54.78" height="8.3" style="fill:#ebebeb"></rect><rect x="79.07" y="414.7" width="8.3" height="8.3" style="fill:#fff"></rect><rect x="117.51" y="414.7" width="18.04" height="8.3" style="fill:#f5f5f5"></rect><rect x="79.07" y="429.48" width="54.78" height="8.3" style="fill:#ebebeb"></rect><rect x="79.07" y="429.48" width="8.3" height="8.3" style="fill:#A3A0A0"></rect><rect x="117.51" y="429.48" width="18.04" height="8.3" style="fill:#f5f5f5"></rect><rect x="79.07" y="444.25" width="54.78" height="8.3" style="fill:#ebebeb"></rect><rect x="79.07" y="444.25" width="8.3" height="8.3" style="fill:#fff"></rect><rect x="117.51" y="444.25" width="18.04" height="8.3" style="fill:#f5f5f5"></rect><path d="M200.7,468.87c0-2.23-.1-104.1-.24-250.7l.24.24-134.9,0h0l.26-.26c0,96.24-.05,184.24-.06,250.7l-.2-.2,134.92.2-134.92.19h-.2v-.2c0-66.46,0-154.46-.06-250.7v-.26h.28l134.9,0h.24v.24c0,73.36-.08,136.06-.11,180.43C200.75,442.81,200.7,467.76,200.7,468.87Z" style="fill:#263238"></path></g><g id="freepik--Character--inject-13"><path d="M554.92,147.51H195.08a11.23,11.23,0,0,0-11.23,11.23V412.91a11.23,11.23,0,0,0,11.23,11.23H333.19l-6.7,44.4H426.62L421,424.14H554.92a11.23,11.23,0,0,0,11.23-11.23V158.74A11.23,11.23,0,0,0,554.92,147.51Z" style="fill:#455a64"></path><path d="M379.8,397.41c4.9,7-2.76,14.66-9.76,9.76a2.44,2.44,0,0,1-.6-.6c-4.88-7,2.77-14.65,9.76-9.76A2.44,2.44,0,0,1,379.8,397.41Z" style="fill:#263238"></path><path d="M203.61,157.21H546.44a9.7,9.7,0,0,1,9.7,9.7V377.64a0,0,0,0,1,0,0H193.91a0,0,0,0,1,0,0V166.91A9.7,9.7,0,0,1,203.61,157.21Z" style="fill:#263238"></path><path d="M458.16,424.14c0,.13-30.17.23-67.37.23s-67.37-.1-67.37-.23,30.16-.22,67.37-.22S458.16,424,458.16,424.14Z" style="fill:#263238"></path><rect x="230.29" y="174.62" width="26.4" height="5.57" style="fill:#455a64"></rect><rect x="230.29" y="199.58" width="13.2" height="5.57" style="fill:#A3A0A0"></rect><rect x="240.23" y="212.13" width="18.59" height="5.57" style="fill:#455a64"></rect><rect x="261.77" y="212.13" width="10.83" height="5.57" style="fill:#455a64"></rect><rect x="347.44" y="212.13" width="22.28" height="5.57" style="fill:#455a64"></rect><rect x="397.19" y="224.36" width="37.63" height="5.57" style="fill:#455a64"></rect><rect x="474.8" y="212.13" width="18.07" height="5.57" style="fill:#455a64"></rect><rect x="498.41" y="212.13" width="36.34" height="5.57" style="fill:#455a64"></rect><rect x="240.23" y="224.36" width="18.59" height="5.57" style="fill:#455a64"></rect><rect x="228.8" y="236.56" width="18.59" height="5.57" style="fill:#A3A0A0"></rect><rect x="238.71" y="248.77" width="8.69" height="5.57" style="fill:#455a64"></rect><rect x="270.59" y="274.47" width="8.68" height="5.57" style="fill:#455a64"></rect><rect x="390.06" y="320.91" width="16.97" height="5.57" style="fill:#455a64"></rect><rect x="460.26" y="320.91" width="41.57" height="5.57" style="fill:#455a64"></rect><rect x="326.17" y="308.72" width="16.97" height="5.57" style="fill:#e0e0e0"></rect><rect x="264.69" y="298.26" width="16.97" height="5.57" style="fill:#455a64"></rect><rect x="359.78" y="320.91" width="26.76" height="5.57" style="fill:#455a64"></rect><rect x="238.71" y="261.19" width="14.09" height="5.57" style="fill:#455a64"></rect><rect x="238.71" y="274.68" width="26.14" height="5.57" style="fill:#455a64"></rect><rect x="238.71" y="285" width="38.25" height="5.57" style="fill:#455a64"></rect><rect x="308.01" y="285" width="38.25" height="5.57" style="fill:#455a64"></rect><rect x="264.35" y="308.72" width="53.71" height="5.57" style="fill:#455a64"></rect><rect x="264.35" y="320.91" width="90.84" height="5.57" style="fill:#455a64"></rect><rect x="236.87" y="333.11" width="90.84" height="5.57" style="fill:#455a64"></rect><rect x="281" y="285" width="22.95" height="5.57" style="fill:#455a64"></rect><rect x="250.82" y="248.77" width="23.68" height="5.57" style="fill:#455a64"></rect><rect x="256.04" y="261.2" width="23.68" height="5.57" style="fill:#455a64"></rect><rect x="308.76" y="261.2" width="62.7" height="5.57" style="fill:#455a64"></rect><rect x="373.16" y="261.2" width="72.41" height="5.57" style="fill:#455a64"></rect><rect x="283.61" y="261.2" width="19.6" height="5.57" style="fill:#455a64"></rect><rect x="277.74" y="248.77" width="31.04" height="5.57" style="fill:#455a64"></rect><rect x="312.21" y="248.77" width="17.28" height="5.57" style="fill:#e0e0e0"></rect><rect x="261.77" y="224.36" width="19.38" height="5.57" style="fill:#455a64"></rect><rect x="294.32" y="224.36" width="95.69" height="5.57" style="fill:#455a64"></rect><rect x="452.18" y="261.2" width="45.24" height="5.57" style="fill:#455a64"></rect><rect x="411.44" y="320.91" width="45.25" height="5.57" style="fill:#455a64"></rect><rect x="373.5" y="212.13" width="94.26" height="5.57" style="fill:#455a64"></rect><rect x="275.99" y="212.13" width="65.59" height="5.57" style="fill:#455a64"></rect><rect x="230.29" y="186.44" width="44.16" height="5.57" style="fill:#455a64"></rect><rect x="278.86" y="186.44" width="60.47" height="5.57" style="fill:#455a64"></rect><rect x="260.82" y="174.62" width="19.44" height="5.57" style="fill:#e0e0e0"></rect><rect x="215.25" y="174.62" width="5.4" height="5.57" style="fill:#455a64"></rect><rect x="215.25" y="186.82" width="5.4" height="5.57" style="fill:#455a64"></rect><rect x="215.25" y="199.01" width="5.4" height="5.57" style="fill:#455a64"></rect><rect x="215.25" y="211.2" width="5.4" height="5.57" style="fill:#455a64"></rect><rect x="215.25" y="223.39" width="5.4" height="5.57" style="fill:#455a64"></rect><rect x="215.25" y="235.58" width="5.4" height="5.57" style="fill:#455a64"></rect><rect x="215.25" y="247.77" width="5.4" height="5.57" style="fill:#455a64"></rect><rect x="215.25" y="259.96" width="5.4" height="5.57" style="fill:#455a64"></rect><rect x="215.25" y="272.15" width="5.4" height="5.57" style="fill:#455a64"></rect><rect x="268.46" y="359.44" width="8.68" height="5.57" style="fill:#e0e0e0"></rect><rect x="237.04" y="359.44" width="26.14" height="5.57" style="fill:#A3A0A0"></rect><rect x="215.25" y="358.82" width="5.4" height="5.57" style="fill:#455a64"></rect><rect x="215.25" y="284.34" width="5.4" height="5.57" style="fill:#455a64"></rect><rect x="215.25" y="296.53" width="5.4" height="5.57" style="fill:#455a64"></rect><rect x="215.25" y="308.72" width="5.4" height="5.57" style="fill:#455a64"></rect><rect x="215.25" y="320.91" width="5.4" height="5.57" style="fill:#455a64"></rect><rect x="215.25" y="333.11" width="5.4" height="5.57" style="fill:#455a64"></rect><rect x="236.87" y="345.93" width="26.48" height="5.57" style="fill:#455a64"></rect><rect x="268.46" y="345.93" width="59.91" height="5.57" style="fill:#455a64"></rect><rect x="215.25" y="345.93" width="5.4" height="5.57" style="fill:#455a64"></rect><rect x="346.71" y="186.4" width="19.44" height="5.57" style="fill:#e0e0e0"></rect><g style="opacity:0.30000000000000004"><polygon points="389.28 283.95 376 283.95 376 391.83 534.23 391.83 530.11 286.57 389.28 283.95"></polygon></g><rect x="386.19" y="268" width="158.33" height="113.64" style="fill:#e0e0e0"></rect><path d="M545,382.14H385.69V267.5H545Zm-158.33-1H544V268.5H386.69Z" style="fill:#263238"></path><rect x="416.25" y="280.14" width="25.6" height="5.4" style="fill:#455a64"></rect><rect x="416.25" y="304.34" width="12.8" height="5.4" style="fill:#A3A0A0"></rect><rect x="425.88" y="316.51" width="18.03" height="5.4" style="fill:#455a64"></rect><rect x="446.78" y="316.51" width="10.5" height="5.4" style="fill:#455a64"></rect><rect x="425.88" y="328.38" width="18.03" height="5.4" style="fill:#455a64"></rect><rect x="414.81" y="340.21" width="18.03" height="5.4" style="fill:#A3A0A0"></rect><rect x="424.41" y="352.04" width="8.42" height="5.4" style="fill:#455a64"></rect><rect x="424.41" y="364.09" width="13.67" height="5.4" style="fill:#455a64"></rect><rect x="436.16" y="352.04" width="22.96" height="5.4" style="fill:#455a64"></rect><rect x="441.22" y="364.1" width="22.96" height="5.4" style="fill:#455a64"></rect><rect x="492.35" y="364.1" width="27.16" height="5.4" style="fill:#455a64"></rect><rect x="467.96" y="364.1" width="19" height="5.4" style="fill:#455a64"></rect><rect x="462.27" y="352.04" width="30.1" height="5.4" style="fill:#455a64"></rect><rect x="495.69" y="352.04" width="16.76" height="5.4" style="fill:#fff"></rect><rect x="446.78" y="328.38" width="18.79" height="5.4" style="fill:#455a64"></rect><rect x="460.56" y="316.51" width="63.61" height="5.4" style="fill:#455a64"></rect><rect x="416.25" y="291.6" width="42.83" height="5.4" style="fill:#455a64"></rect><rect x="463.35" y="291.6" width="58.64" height="5.4" style="fill:#455a64"></rect><rect x="445.85" y="280.14" width="18.85" height="5.4" style="fill:#fff"></rect><rect x="401.66" y="280.14" width="5.23" height="5.4" style="fill:#455a64"></rect><rect x="401.66" y="291.96" width="5.23" height="5.4" style="fill:#455a64"></rect><rect x="401.66" y="303.79" width="5.23" height="5.4" style="fill:#455a64"></rect><rect x="401.66" y="315.61" width="5.23" height="5.4" style="fill:#455a64"></rect><rect x="401.66" y="327.43" width="5.23" height="5.4" style="fill:#455a64"></rect><rect x="401.66" y="339.25" width="5.23" height="5.4" style="fill:#455a64"></rect><rect x="401.66" y="351.08" width="5.23" height="5.4" style="fill:#455a64"></rect><rect x="401.66" y="362.9" width="5.23" height="5.4" style="fill:#455a64"></rect><g style="opacity:0.30000000000000004"><path d="M300.86,423.53c2-10-4.5-39.91-4.5-39.91l-48.62,6.18-2,33.51Z"></path></g><path d="M239,383.62s2.14,39.77-6.78,53.45l60.55,1.49s4.7-23.23,3.63-54.94Z" style="fill:#A3A0A0"></path><path d="M296.2,391.32c0,.14-12.61.26-28.15.26s-28.15-.12-28.15-.26,12.6-.26,28.15-.26S296.2,391.18,296.2,391.32Z" style="fill:#263238"></path><path d="M289.47,404.93c0,.14-10.08.26-22.5.26s-22.5-.12-22.5-.26,10.07-.26,22.5-.26S289.47,404.79,289.47,404.93Z" style="fill:#263238"></path><path d="M290,412.36c0,.14-10.07.26-22.5.26S245,412.5,245,412.36s10.07-.26,22.49-.26S290,412.22,290,412.36Z" style="fill:#263238"></path><path d="M288.55,419.79c0,.14-10.08.26-22.5.26s-22.5-.12-22.5-.26,10.07-.26,22.5-.26S288.55,419.65,288.55,419.79Z" style="fill:#263238"></path><g style="opacity:0.30000000000000004"><path d="M229,384.36s2.59,29.44,2.59,39.91h-7.46Z"></path></g><path d="M211.11,384.36s2.14,39.78-6.78,53.45h19.94S230,416.07,229,384.36Z" style="fill:#e0e0e0"></path><path d="M489.85,211.4l33.53-38.54-33.76-24.52,26.49-15.59s41.55,25.25,41,40.41c-.49,13.8-52.87,48.71-52.87,48.71Z" style="fill:#ffbf9d"></path><path d="M463.55,299a48.59,48.59,0,1,1-60.51-70h0a48.59,48.59,0,0,1,60.51,70Zm-80.19-48.88a45.32,45.32,0,1,0,21-18.13A45.31,45.31,0,0,0,383.36,250.07Z" style="fill:#A3A0A0"></path><g style="opacity:0.30000000000000004"><path d="M463.55,299a48.59,48.59,0,1,1-60.51-70h0a48.59,48.59,0,0,1,60.51,70Zm-80.19-48.88a45.32,45.32,0,1,0,21-18.13A45.31,45.31,0,0,0,383.36,250.07Z"></path></g><path d="M461.58,296.82a48.59,48.59,0,1,1-60.51-70h0a48.59,48.59,0,0,1,60.51,70Zm-80.19-48.88a45.31,45.31,0,1,0,21-18.14A45.29,45.29,0,0,0,381.39,247.94Z" style="fill:#A3A0A0"></path><path d="M532.26,207.48l1.9,3c1.71,2.64-.38,6.9-4.12,8.63l-63.43,38.84-5.92-8.66L522.52,206C526.52,202.94,530.06,204.08,532.26,207.48Z" style="fill:#A3A0A0"></path><path d="M422.08,231.15a4.15,4.15,0,0,1-.8,0c-.52,0-1.29-.07-2.28,0a34.88,34.88,0,0,0-8.25,1.35,42.47,42.47,0,0,0-5.44,2,48,48,0,0,0-5.84,3.14A45.38,45.38,0,0,0,393.6,242a43.13,43.13,0,0,0-5.45,5.66,40.72,40.72,0,0,0-4.25,6.59,43.63,43.63,0,0,0-2.68,6.81,41.15,41.15,0,0,0-1.65,12.26,39.29,39.29,0,0,0,1,8.3c.18,1,.45,1.7.56,2.22a3.75,3.75,0,0,1,.18.77,5.76,5.76,0,0,1-.28-.74c-.14-.51-.44-1.23-.66-2.2a37,37,0,0,1-1.19-8.34,40.52,40.52,0,0,1,1.56-12.4,42.41,42.41,0,0,1,2.69-6.91,40.1,40.1,0,0,1,4.3-6.69,43.47,43.47,0,0,1,5.52-5.72,44,44,0,0,1,6-4.4,45.25,45.25,0,0,1,5.92-3.12,43.39,43.39,0,0,1,5.51-1.92A33.06,33.06,0,0,1,419,231a22.62,22.62,0,0,1,2.3.08A4.92,4.92,0,0,1,422.08,231.15Z" style="fill:#fff"></path><path d="M460,283.11c-.12,0,.78-2.22,1.41-5.95.07-.47.15-1,.22-1.46s.09-1.05.15-1.6c.12-1.1.1-2.29.12-3.54a37.79,37.79,0,0,0-3.69-15.66c-.57-1.11-1.08-2.18-1.68-3.11-.29-.47-.55-.94-.84-1.37s-.58-.82-.85-1.21c-2.23-3.05-4-4.61-3.92-4.7a11.82,11.82,0,0,1,1.23,1.1,13.2,13.2,0,0,1,1.34,1.4,21.54,21.54,0,0,1,1.64,2c.29.38.58.78.89,1.2s.57.89.88,1.37a34.69,34.69,0,0,1,1.75,3.12,40.47,40.47,0,0,1,2.76,7.73,39.42,39.42,0,0,1,1,8.14c0,1.26,0,2.46-.17,3.58-.06.55-.09,1.1-.18,1.61s-.18,1-.26,1.47a24.92,24.92,0,0,1-.58,2.51,13.7,13.7,0,0,1-.58,1.85A9.71,9.71,0,0,1,460,283.11Z" style="fill:#fff"></path><path d="M430,248.69c.1.11-6.44,6.23-14.61,13.68s-14.86,13.41-15,13.3S406.83,269.44,415,262,429.86,248.58,430,248.69Z" style="fill:#fff"></path><path d="M442.44,256.58a3.68,3.68,0,0,1-.47.44l-1.4,1.2-5.18,4.37c-4.38,3.68-10.42,8.78-17,14.49s-12.53,10.94-16.8,14.74l-5.08,4.5-1.39,1.21a2.65,2.65,0,0,1-.51.39,3.73,3.73,0,0,1,.44-.47l1.33-1.28c1.16-1.11,2.85-2.68,5-4.62,4.22-3.87,10.1-9.15,16.71-14.87s12.69-10.76,17.14-14.37c2.22-1.81,4-3.26,5.29-4.24l1.46-1.13A2.41,2.41,0,0,1,442.44,256.58Z" style="fill:#fff"></path><g style="opacity:0.30000000000000004"><path d="M381.67,294.27l66.71-57.56s6.59,5,9.39,9.56L389.5,305A34.87,34.87,0,0,1,381.67,294.27Z" style="fill:#fff"></path></g><g style="opacity:0.30000000000000004"><path d="M396.81,310.4l65-56.62s.32-.53,1.21,3.54L400,312.17A8.11,8.11,0,0,1,396.81,310.4Z" style="fill:#fff"></path></g><path d="M489.85,211.4s-19.56,21.55-20,22.36-5.71,13.25-4.41,15.77,11.1,11.37,11.1,11.37,3.5-1.51.19-7.43l-3.31-5.91,1.78-6s2.64,7.57,4.17,9.23,7.59,4.5,9.11,3a6,6,0,0,0,1.75-3.23s4.15,3.3,7.08-1.95c0,0,3.69-.57,5.27-3.15S504,238,504,238a2.34,2.34,0,0,0-3.58-.81,10.75,10.75,0,0,0-3.5,4.62l-1.71-2.28a33,33,0,0,1,2.61-8.91c1.19-2.28,8.87-7.25,9.78-11.21.77-3.35-5.93-5.57-9.37-5.38h0a5.28,5.28,0,0,0-1.51.31Z" style="fill:#ffbf9d"></path><path d="M488.15,238.92a1.93,1.93,0,0,0,0,.59,9.09,9.09,0,0,0,.27,1.56,10.25,10.25,0,0,0,7,7.27,8.78,8.78,0,0,0,1.56.32,1.84,1.84,0,0,0,.58,0c0-.06-.83-.12-2.08-.54a10.86,10.86,0,0,1-4.32-2.71,11,11,0,0,1-2.55-4.41C488.23,239.75,488.2,238.92,488.15,238.92Z" style="fill:#ff9a6c"></path><path d="M481.57,238.27a2.93,2.93,0,0,0,0,.62,5.75,5.75,0,0,0,.08.73,8.33,8.33,0,0,0,.16,1,15.73,15.73,0,0,0,.75,2.41,15,15,0,0,0,3.46,5.09,13.33,13.33,0,0,0,2,1.59c.29.21.58.36.82.51s.47.25.65.33a2.66,2.66,0,0,0,.58.24c0-.05-.78-.42-1.93-1.25a14.83,14.83,0,0,1-1.9-1.61,16.63,16.63,0,0,1-1.94-2.34,20.34,20.34,0,0,1-1.66-2.78,13,13,0,0,1-.6-2.24C481.68,239.15,481.63,238.26,481.57,238.27Z" style="fill:#ff9a6c"></path><path d="M474.08,236.71s-.17.29-.24.81a4.51,4.51,0,0,0,.24,2,3.79,3.79,0,0,0,1.1,1.72c.38.36.67.51.69.48a7.09,7.09,0,0,1-1.52-2.3A7.22,7.22,0,0,1,474.08,236.71Z" style="fill:#ff9a6c"></path><path d="M541.54,170.57c0,.08-1.07-.64-2.93-1.31a15.06,15.06,0,0,0-7.55-.71,13,13,0,0,0-6.71,3.44c-1.44,1.35-2.15,2.37-2.23,2.32a2.64,2.64,0,0,1,.45-.76,14.1,14.1,0,0,1,1.53-1.82A12.5,12.5,0,0,1,531,168a14.35,14.35,0,0,1,7.77.89,12.11,12.11,0,0,1,2.12,1.1C541.32,170.34,541.56,170.54,541.54,170.57Z" style="fill:#ff9a6c"></path><path d="M440.13,81.46c0-6.55,0-13.14-1.14-19.6s-3.39-12.83-7.45-18c-.62-.78-5.35-5.81-6.26-5.42-.65.29,2.87,5.27,2.72,6-1.44,6.62-.16,13.61,2.44,19.87a88.72,88.72,0,0,0,9.69,17.16" style="fill:#263238"></path><path d="M433,57.47c-4.55-15.8-17.53-26.32-33.2-21.33l-1.42.54a29.4,29.4,0,0,0-17.67,35.73c4,13.67,8.64,28.72,11.45,35.8,5.84,14.66,21.45,11.3,21.45,11.3s9.74,22.4,9.74,22.4l31-15.89Z" style="fill:#ffbf9d"></path><path d="M413.68,119.62a38.13,38.13,0,0,0,17-13s.44,13.77-14.77,18.09Z" style="fill:#ff9a6c"></path><path d="M391.21,85.69A2.24,2.24,0,0,0,394.05,87a2.15,2.15,0,0,0,1.44-2.72A2.25,2.25,0,0,0,392.65,83,2.15,2.15,0,0,0,391.21,85.69Z" style="fill:#263238"></path><path d="M386.24,77.31c.37.18,1.51-1.61,3.78-2.48s4.36-.36,4.49-.73c.08-.17-.38-.57-1.3-.82a6.17,6.17,0,0,0-3.73.26,5.9,5.9,0,0,0-2.87,2.31C386.11,76.65,386.07,77.24,386.24,77.31Z" style="fill:#263238"></path><path d="M410.56,78.9a2.25,2.25,0,0,0,2.84,1.35,2.15,2.15,0,0,0,1.44-2.73A2.25,2.25,0,0,0,412,76.17,2.16,2.16,0,0,0,410.56,78.9Z" style="fill:#263238"></path><path d="M408.76,69.72c.37.18,1.51-1.62,3.78-2.48s4.35-.36,4.49-.74c.08-.16-.38-.56-1.3-.81a6.24,6.24,0,0,0-3.73.25,6,6,0,0,0-2.88,2.32C408.64,69.06,408.59,69.65,408.76,69.72Z" style="fill:#263238"></path><path d="M407.32,90.23c0-.14-1.54.16-3.93.74-.6.17-1.19.26-1.44-.1a3.05,3.05,0,0,1-.27-1.86c0-1.6,0-3.29,0-5.05,0-7.18-.29-13-.58-13s-.5,5.83-.47,13c0,1.77,0,3.45.06,5.06a3.65,3.65,0,0,0,.57,2.38,1.58,1.58,0,0,0,1.28.48,4.35,4.35,0,0,0,1-.24C405.93,90.89,407.36,90.36,407.32,90.23Z" style="fill:#263238"></path><path d="M414.58,89.24c-.38.12.56,2.57-.87,5.12s-4.15,3.29-4,3.64c0,.17.77.25,1.88-.14A6.58,6.58,0,0,0,415,95a5.73,5.73,0,0,0,.57-4.24C415.25,89.66,414.74,89.16,414.58,89.24Z" style="fill:#263238"></path><path d="M405.36,60.49c.46.53,2.61-.63,5.39-1.33s5.2-.8,5.34-1.48c.06-.33-.54-.76-1.63-1a9.38,9.38,0,0,0-4.34.13,9.11,9.11,0,0,0-3.83,2C405.46,59.56,405.16,60.24,405.36,60.49Z" style="fill:#263238"></path><path d="M384.29,69.43c.6.36,1.95-.77,3.82-1.51s3.59-1,3.75-1.67c.06-.32-.39-.74-1.27-1a6,6,0,0,0-6.09,2.56C384,68.64,384,69.25,384.29,69.43Z" style="fill:#263238"></path><path d="M436,68.84c.21-.21,9-6.88,12.51,3.31S441.12,83.8,441,83.51,436,68.84,436,68.84Z" style="fill:#ffbf9d"></path><path d="M442.77,78.57s.22.06.57.09a1.87,1.87,0,0,0,1.34-.43c.93-.77,1.25-2.79.66-4.65A6.37,6.37,0,0,0,444,71.21a2.17,2.17,0,0,0-1.81-.89,1,1,0,0,0-.88.85c0,.33.1.51.05.55s-.28-.1-.34-.55a1.14,1.14,0,0,1,.18-.78,1.42,1.42,0,0,1,.89-.6,2.63,2.63,0,0,1,2.4.94,6.22,6.22,0,0,1,1.6,2.63c.65,2.07.27,4.36-1.06,5.3a2,2,0,0,1-1.71.29C442.87,78.81,442.74,78.6,442.77,78.57Z" style="fill:#ff9a6c"></path><path d="M381.65,53.24c-2-.35,1.19-7.39,4.63-10.6,5.2-4.87,14-9.75,20.22-10.06,7.47-.37,14.28,1.11,19.8,6.16a42.3,42.3,0,0,1,11.45,19,12.85,12.85,0,0,1,.67,6.73c-.67,2.74-2.92,5.09-1.75,8.17a4.51,4.51,0,0,1,0,3.48c-1.2,2.62-4.12,1.52-5.8,0-3.6-3.24-5.47-7.94-7.21-12.46-1.24-3.21-2.5-6.5-2.64-9.94-.07-1.87.19-3.75,0-5.62a6.5,6.5,0,0,0-2.45-4.86,6.77,6.77,0,0,0-1.12-.56,11.24,11.24,0,0,0-11.25,1.56c-5.07,4-13.87,10.34-17.1,9.26-4.64-1.57-6.15-3.1-6.15-3.1Z" style="fill:#263238"></path><path d="M366.23,148.08s-1.46-4.12,3.49-9.66S413.9,122,413.9,122s14.26,16.15,26.6,5.12c9-8,9.3-16,9.3-16h35.5l4.43,36.47-14.15.08Z" style="fill:#A3A0A0"></path><path d="M478.85,111.11s9.26-1.87,17.72,2c14.21,6.45,38.9,27,38.9,27l-30,24.65-20.8-17.06Z" style="fill:#A3A0A0"></path><path d="M491.75,153.59a1.76,1.76,0,0,1-.39-.2c-.24-.15-.6-.37-1-.68a30.33,30.33,0,0,1-3.53-2.86,32.82,32.82,0,0,1-4.45-5.08,18.57,18.57,0,0,1-3.31-7.58c-1-5.82-.13-11.34,1.75-14.74a11.09,11.09,0,0,1,2.92-3.5,8.86,8.86,0,0,1,1.05-.66c.24-.14.38-.21.39-.19s-.48.36-1.32,1a11.83,11.83,0,0,0-2.72,3.51c-1.74,3.35-2.58,8.77-1.56,14.47a18.55,18.55,0,0,0,3.19,7.4,34.22,34.22,0,0,0,4.31,5.09,41,41,0,0,0,3.4,3A15.31,15.31,0,0,1,491.75,153.59Z" style="fill:#263238"></path><path d="M484.64,147.61c0,.14-24.44.36-54.59.48s-54.6.1-54.6-.05,24.44-.35,54.6-.47S484.64,147.46,484.64,147.61Z" style="fill:#263238"></path><path d="M353.44,142.62c.07.15.13.3.19.45a8.26,8.26,0,0,1,.44,2.2,9.4,9.4,0,0,0,.05,1.06,4.39,4.39,0,0,0,.29.62,10.44,10.44,0,0,1,.39,4.38,8.36,8.36,0,0,0,.81,4.68c.84,1.38,2.79,2.19,4.12,1.27a2.1,2.1,0,0,0,1.57,2.3,3,3,0,0,0,2.81-.87,5.63,5.63,0,0,0,1.4-2.69,2.33,2.33,0,0,0,2.32,2.25,3.58,3.58,0,0,0,2.94-1.8,8.32,8.32,0,0,0,1-3.43,41.93,41.93,0,0,1,.73-4.6s1.51.25,2.2.31l.2,0a9.41,9.41,0,0,0,1.44-2.5c1-2,1.7-3.24,2.43-5,.56-1.34.91-2.69.08-3.56-2-2.11-5.92,2.18-5.92,2.18-.56-1.5-5.11-1.74-6,.25-.36-1.1-.22-1.73-1.11-2.47a3.68,3.68,0,0,0-3.22-.81,2.61,2.61,0,0,0-2,2.53,4.44,4.44,0,0,0-4.62-1.93,4.37,4.37,0,0,0-2.57,1.78,4.46,4.46,0,0,0-.65,1.44,1.77,1.77,0,0,0-.11.6.89.89,0,0,0,.09.26C353,141.88,353.26,142.22,353.44,142.62Z" style="fill:#ffbf9d"></path><path d="M348.63,139.71a3.43,3.43,0,0,0-2.73.91,5.58,5.58,0,0,0-.85,3.78c1.37.26,2.08.32,3.46.58.29.05.53,0,.77.15.63.45.53,2,.78,2.7a2.65,2.65,0,0,0,3.34,1.43,3.56,3.56,0,0,0,2.15-3.16,5.49,5.49,0,0,0-1.4-3.7A7.66,7.66,0,0,0,348.63,139.71Z" style="fill:#ffbf9d"></path><path d="M360.66,139c.26,0,.26,4.13,0,9.19s-.68,9.15-.93,9.14-.26-4.13,0-9.19S360.41,138.94,360.66,139Z" style="fill:#ff9a6c"></path><path d="M367,139.82c.25,0,.58,3.74.18,8.34s-1.36,8.24-1.6,8.19.29-3.73.67-8.27S366.71,139.83,367,139.82Z" style="fill:#ff9a6c"></path><path d="M373.16,140.67c.26,0,.37,3.11-.12,6.89s-1.06,6.77-1.3,6.75-.1-3.12.38-6.87S372.9,140.66,373.16,140.67Z" style="fill:#ff9a6c"></path><path d="M350.61,140.35c0-.11.66-.26,1.61.18a5.13,5.13,0,0,1,2.53,2.95,10.35,10.35,0,0,1,.63,3.79c-.11,1.14-.94,1.47-1,1.32s.38-.5.3-1.34a18.15,18.15,0,0,0-.84-3.44,5.62,5.62,0,0,0-2-2.71C351.18,140.6,350.6,140.49,350.61,140.35Z" style="fill:#ff9a6c"></path></g><g id="freepik--Wrench--inject-13"><path d="M502.16,457.2A28.92,28.92,0,0,0,515,428.62l11.35-7.44,1.61-1,89.87-58.9a28.91,28.91,0,0,0,44.42-23.87L657,336.5l-5.72,8-13.15-2.77-7.34-11.25,2.77-13.16,10.93-7.13-7.4-1.94c-7.84-2.31-12.19-.43-19.57,4.39a28.91,28.91,0,0,0-12.79,28.53l-91.37,59.89-2.83,1.84-8.66,5.67a28.91,28.91,0,0,0-31.27.21c-7.35,4.79-17.26,14.76-18.33,22.83l5.22.86,10.93-7.13,13.16,2.77,7.34,11.25-2.77,13.16-11.77,3.32.83,3.81A28.87,28.87,0,0,0,502.16,457.2Z" style="fill:#e0e0e0"></path><g style="opacity:0.30000000000000004"><path d="M502.16,457.2A28.92,28.92,0,0,0,515,428.62l11.35-7.44,1.61-1,89.87-58.9a28.91,28.91,0,0,0,44.42-23.87L657,336.5l-5.72,8-13.15-2.77-7.34-11.25,2.77-13.16,10.93-7.13-7.4-1.94c-7.84-2.31-12.19-.43-19.57,4.39a28.91,28.91,0,0,0-12.79,28.53l-91.37,59.89-2.83,1.84-8.66,5.67a28.91,28.91,0,0,0-31.27.21c-7.35,4.79-17.26,14.76-18.33,22.83l5.22.86,10.93-7.13,13.16,2.77,7.34,11.25-2.77,13.16-11.77,3.32.83,3.81A28.87,28.87,0,0,0,502.16,457.2Z"></path></g><path d="M496.94,456.34a28.9,28.9,0,0,0,12.79-28.58l11.36-7.45,1.6-1,89.87-58.91A28.9,28.9,0,0,0,657,336.5L646,343.64l-13.15-2.77-7.34-11.26,2.77-13.15,10.94-7.14a28.91,28.91,0,0,0-39.77,31l-91.37,59.9L505.29,402l-8.66,5.68a28.91,28.91,0,0,0-44.38,23.9l10.94-7.14,13.15,2.77,7.34,11.26-2.77,13.15L470,458.79A28.87,28.87,0,0,0,496.94,456.34Z" style="fill:#e0e0e0"></path><path d="M496.94,456.34s-.52.34-1.55,1a32.12,32.12,0,0,1-4.93,2.24,28.95,28.95,0,0,1-20.53-.68l-.18-.07.17-.11,10.93-7.15-.06.07c.85-4.05,1.77-8.46,2.75-13.15l0,.11c-2.29-3.52-4.76-7.3-7.35-11.25l.1.06-13.16-2.75.13,0-10.94,7.15-.28.18v-.33A29,29,0,0,1,466,407.29,28.85,28.85,0,0,1,481,403a29.32,29.32,0,0,1,15.7,4.52h-.23L599.36,340.1l-.11.24a29.44,29.44,0,0,1,2.11-16,29.16,29.16,0,0,1,24.17-17.38,29.3,29.3,0,0,1,13.82,2.15l.43.19-.39.25-10.94,7.14.11-.16q-1.39,6.63-2.77,13.15l0-.18,7.34,11.25-.15-.1,13.15,2.77-.18,0,10.94-7.13.38-.24v.44A29.12,29.12,0,0,1,641,362.07a28.91,28.91,0,0,1-14.73,3,29.71,29.71,0,0,1-13.84-4.49h.23l-102.89,67.3,0-.11a29.57,29.57,0,0,1-1.38,14.1,29.07,29.07,0,0,1-5.16,9,29.88,29.88,0,0,1-4.59,4.34c-1.17.81-1.77,1.21-1.77,1.21l1.73-1.26a30.89,30.89,0,0,0,4.55-4.36,29,29,0,0,0,6.4-23v-.07l.06,0,102.77-67.47.12-.07.12.07a29.11,29.11,0,0,0,13.63,4.41,28.36,28.36,0,0,0,14.51-2.94,28.65,28.65,0,0,0,15.93-25.16l.36.2-10.94,7.14-.08.05-.1,0-13.15-2.76-.1,0,0-.08-7.35-11.26-.05-.08,0-.1q1.37-6.53,2.77-13.15l0-.1.08-.06,10.94-7.13,0,.43A28.66,28.66,0,0,0,612.43,312a28.6,28.6,0,0,0-10.62,12.55,28.94,28.94,0,0,0-2.07,15.75l0,.15-.13.09L496.75,407.89l-.12.07-.12-.07A28.83,28.83,0,0,0,481,403.43a28.82,28.82,0,0,0-25,14.77,28.78,28.78,0,0,0-3.6,13.41l-.28-.15,11-7.13,0,0h.07l13.15,2.78h.06l0,.06,7.33,11.26,0,.05v.06c-1,4.68-1.93,9.09-2.79,13.15v.05l0,0-11,7.12,0-.18a29,29,0,0,0,20.41.77,32.15,32.15,0,0,0,4.94-2.19Z" style="fill:#263238"></path><path d="M608.51,356.38s-.25-.13-.65-.42a17.34,17.34,0,0,1-1.61-1.39,23.26,23.26,0,0,1-6.58-12.15,14.91,14.91,0,0,1-.28-2.1,2.56,2.56,0,0,1,0-.77c.08,0,.21,1.08.62,2.8a27,27,0,0,0,2.46,6.41,27.27,27.27,0,0,0,4,5.57C607.71,355.61,608.56,356.31,608.51,356.38Z" style="fill:#263238"></path></g><g id="freepik--Settings--inject-13"><rect x="127.61" y="87" width="91.51" height="91.51" rx="9.87" style="fill:#A3A0A0"></rect><g style="opacity:0.30000000000000004"><rect x="127.61" y="87" width="91.51" height="91.51" rx="9.87"></rect></g><rect x="114.19" y="87" width="91.51" height="91.51" rx="9.87" style="fill:#A3A0A0"></rect><path d="M147.06,112.36a24.35,24.35,0,0,1,6.05-2.63l1.24-6,10.12-.18,1.46,5.94a24.61,24.61,0,0,1,6.14,2.42l5.11-3.36,7.29,7-3.17,5.23a24.86,24.86,0,0,1,2.62,6.05l6,1.25.18,10.12-5.94,1.46a24.76,24.76,0,0,1-2.42,6.14l3.36,5.11-7,7.28-5.23-3.17a24.51,24.51,0,0,1-6.05,2.63l-1.25,6-10.12.18L154,157.92a25.15,25.15,0,0,1-6.14-2.42l-5.11,3.35-7.28-7,3.17-5.22a24.58,24.58,0,0,1-2.63-6.06l-6-1.24-.18-10.12,5.94-1.46a25,25,0,0,1,2.42-6.14l-3.35-5.11,7-7.29,5.23,3.18Zm5.39,13.48a10.86,10.86,0,1,0,15.35-.27A10.86,10.86,0,0,0,152.45,125.84Z" style="fill:#fff"></path><g style="opacity:0.30000000000000004"><polygon points="185.14 87 114.19 143.67 114.19 154.7 198.79 87 185.14 87" style="fill:#fff"></polygon></g><g style="opacity:0.30000000000000004"><path d="M114.28,167.56,205.7,96.64v19.91l-81.87,62h0a9.58,9.58,0,0,1-9.57-9.65Z" style="fill:#fff"></path></g></g></svg>