<svg version="1.2" xmlns="http://www.w3.org/2000/svg" viewBox="0 0 2000 720" width="2000" height="720">
	<title>xsdark-svg</title>
	<style>
		.s0 { fill: #ededed } 
	</style>
	<path id="XScripts" class="s0" aria-label="XScripts"  d="m209.3 579.4c1.3 1.3 3.8 2.6 5.1 2.6 1.3 0 16.3-11.7 33.2-25.4 65.6-54.5 226.2-176.7 228.8-174.1 0.6 0.6 4.5 8.4 8.4 17.5 12.4 28 28.7 58.5 54.7 100.8 34.4 55.8 55.2 78 64.3 68.2 2.6-3.2 1.9-5.2-7.1-14.3-13.7-13.7-26.7-32.5-45.5-65-20.2-34.4-38.4-69.6-50.1-97.5l-9.8-22.1 9.8-7.8c20.1-15.6 99.4-70.2 165.8-113.7 74.1-48.8 118.9-76.1 154.7-94.3 17.5-9.1 22.7-12.3 22-15-0.6-1.9-2.5-3.8-4.5-4.5-15-2.6-170.9 94.3-308.8 191.1-25.9 18.2-43.5 29.3-44.1 28-18.3-42.3-45.6-135.9-59.8-204.1-3.3-15.7-7.9-20.8-14.4-15.7-3.2 2.7-3.2 5.2 1.4 26.7 5.8 30.5 19.5 87.1 26.6 111.2 5.2 17.5 29.2 85.8 32.5 92.3 0.7 1.9-14.3 14.2-47.5 39-80.5 60.4-195.6 151.4-210.6 167-5.8 5.8-6.5 7.8-3.9 10.4zm514.2 15c22.8 5.8 82.5-5.9 128-24.7 81.3-33.8 105.3-76.7 59.8-106-7.1-4.5-35-16.9-63-27.9-62.4-25.4-78.6-33.8-97.5-50.1-50.7-43.5-39-86.4 41-150.1 66.9-53.3 147.5-91.7 208.6-98.8 24-3.3 36.4-1.3 44.2 6.5 9.7 9.7 7.2 24.7 1.9 41.6-3.8 12.3-9.7 25.3-21.4 44.8-19.5 32.5-58.5 79.3-85.8 104-10.4 9.1-12.4 15-5.9 16.9 5.3 2 28.6-18.2 54.6-47.4 36.4-40.3 61.8-78.7 72.8-109.9 3.3-8.4 5.2-16.2 5.9-23.4 3.9-34.4-19.5-50.7-64.4-45.5-64.3 7.2-137.8 39.7-208 91.7-38.3 27.9-63 52.6-78.6 78.6-9.8 16.3-9.8 16.9-9.8 36.4 0 19.5 0 20.8 8.5 34.5 17.5 28.6 48.1 49.4 105.3 71.5 87.1 33.8 99.5 40.9 99.5 58.5-0.7 30.5-63.8 66.9-147.6 85.1-7.8 2-21.4 3.3-30.6 3.3-14.2 0-16.8-0.7-22.1-4.6-15.6-11.7-9.7-28.6 18.3-51.3 30.5-24.7 63.6-41 68.8-33.8 2.7 3.2 10.4 2.6 10.4-1.3 0-6.5-8.4-11.7-18.8-11.7-9.8 0-32.5 11-55.3 26.6-24 16.3-34.4 26-41.5 38.4-11.1 20.1-0.7 41.6 23.4 47.4zm391.9-205.4c-57.2 39-92.3 51.4-116.4 46.2-15.6-3.3-18.2-14.3-7.1-33.2 6.5-11.7 24-26.6 29.2-25.3 1.3 0.6 3.3 3.2 3.9 6.5 2 7.8 4 10.4 9.1 10.4 11.1 0 5.9-22.1-6.5-26.7-19.5-7.1-48.1 15.6-55.9 44.9-4.5 16.2 5.9 31.2 22.8 34.4 3.2 0.7 7.1 1.3 8.4 2 9.1 2.6 36.4-3.3 55.9-11.7 24.7-11.1 55.3-28.6 75.5-43.6 8.4-6.5 13.6-11.7 13.6-13.6 0-7.8-9.1-4.6-31.9 11zm135.3-12.3c-9.8 3.2-17.6 4.5-26.7 4.5-15.6 0-18.8-3.9-24.1-11.7-7.7-13-11-12.3-35 6.5-19.5 15.6-20.2 15.6-15 7.8 4.5-7.8 4.5-8.4 1.3-11-5.8-5.2-10.4-1.3-24.7 22.1-16.9 27.3-24.1 44.8-20.1 48.7 1.3 1.3 3.9 2.6 5.8 2.6 2 0 12.4-9.7 23.4-22.1 22.1-24 46.8-48.1 50.1-48.1 1.2 0 4.5 2.6 7.7 5.9 7.9 7.8 17.6 13 36.5 11.7 11.7-0.7 25.3-3.9 33.7-7.8 5.3-2.6 8.5-5.2 8.5-7.2 0-5.8-6.5-5.8-20.8-0.6zm76.7-41c6.5-7.8 5.9-13-1.9-14.3-4.6-0.6-17 15.6-15 19.5 2.6 5.2 10.4 2.6 16.9-5.2zm55.3 51.4c-42.3 27.3-79.3 43.5-93.7 43.5-15.5 0-14.2-11 4-40.3 9.7-15.6 11-18.8 8.4-21.4-1.9-2-3.9-3.3-5.9-3.3-4.5 0-9.7 5.9-18.8 19.5-8.4 12.4-15.6 29.9-15.6 38.4 0 5.2 1.9 8.4 7.2 12.3 5.8 4.6 9.1 5.9 18.2 5.9 13.6 0 24-3.3 51.3-16.9 19.5-9.8 44.2-24.1 61.7-36.4 7.9-5.9 13-9.8 13-11.1-1.2-6.5-9.7-3.9-30.5 9.8zm194.3-13.7c-3.2-1.3-7.1 0.7-18.8 9.1-32.5 23.4-52 30.6-81.2 37.1l-16.3 3.9 9.1-11.1c22.1-26 22.1-47.4 0-47.4-18.2 0-48.1 24-78 62.4-7.2 9.7-13.7 17.5-14.3 17.5-0.7 0 2.6-5.8 7.1-13 26.7-43.5 39-65.6 37.7-68.2-0.6-1.3-2.6-2-5.2-2-0.6 0-1.3 0-1.9 0-4.6 0.7-10.4 8.5-32.5 44.2-25.4 41-74.1 126.1-81.2 141.7-2 3.9-2.7 8.5-2 10.4 2 3.9 7.1 3.9 11.7 0 1.9-1.3 18.8-24 37.7-50.7 40.3-56.5 41.6-57.8 45.5-54.6 5.8 5.2 22.1 1.3 39.6-9.7 4-2.6 11.7-5.2 17.6-5.9 16.2-1.9 44.9-9.1 61.1-15.6 19.5-7.8 42.3-20.1 57.8-32.5 5.9-4.5 9.1-7.8 9.1-9.7 0-1.3-1.9-3.3-3.9-4.6zm-149.5 55.3c-3.2 0-9.7 1.3-14.9 2.6l-9.8 2.6 2.7-3.9c10.3-16.3 42.8-44.9 55.8-50.7 5.9-2.6 7.8-3.3 8.5 1.3 2.6 12.3-31.2 48.7-42.3 48.7zm288-151.4c-38.3-0.7-69.5-1.4-69.5-2 0-0.6 4.5-9.1 10.4-18.9 11-18.1 11.6-25.3 2.6-24-3.3 0.7-8.5 7.2-18.9 22.8l-14.3 22.1h-13c-20.8 0-82.5 3.9-102.7 6.5-19.5 2.6-24.1 5.1-19.5 10.4 2.6 3.2 4.6 3.2 20.2 1.2 21.4-2.5 104-6.5 105.2-5.1 0.7 0.6-4.5 11-11.6 23.4-7.2 12.3-20.9 35.7-29.9 51.9-9.1 16.3-28.6 50.1-43 75.5-39 68.2-64.3 122.2-59.7 129.3 2.6 4.6 12.3 5.2 15.6 1.3 1.3-1.3 1.9-6.5 1.9-11.1 0-12.3 16.9-48 117.7-221 7.1-12.3 16.9-28.5 21.4-35.7 7.1-12.3 8.5-13.7 16.3-15 15.6-1.9 127.3-1.2 130 0.7 4.5 3.3 16.2 1.3 16.8-3.2 1.4-8.5-2.5-9.2-76.6-9.8zm29.2 100.8c-9.7 3.8-29.9 10.3-48.1 17.5-18.2 7.2-34.4 13.7-36.4 15-4.5 3.2-5.8 1.3-9.1-11.1-3.2-12.3-1.3-20.1 5.9-24.1 5.8-3.2 5.8-7.1-0.7-9.7-1.3-0.6-2.6-0.6-3.9-0.6-5.8 0-12.3 5.2-16.2 13.6-3.3 7.2-3.3 9.8 0.6 24.7l3.9 16.9-5.2 2.6c-10.4 5.9-27.9 18.2-32.5 23.4-5.8 6.5-5.8 17.6 0 20.8 6.5 3.9 19.5 3.3 31.2-1.3 13-5.2 22.8-17.5 24.7-31.8l1.3-10.4 37.1-15c20.8-7.8 42.9-15.6 52.6-19.5 13.7-5.2 17.6-7.8 17.6-11 0-6.5-5.2-6.5-23.4 0.6zm-116.4 74.8c-3.9 2.6-9.7 4.5-13 4.5-5.2 0-5.8-0.6-3.9-3.9 2.6-3.9 25.4-20.8 28-20.8 5.8 0-2 13-11.7 19.5z"/>
</svg>